<?xml version="1.0" encoding="UTF-8" standalone="no"?>
<!-- Created with Inkscape (http://www.inkscape.org/) -->

<svg
   xmlns:dc="http://purl.org/dc/elements/1.1/"
   xmlns:cc="http://creativecommons.org/ns#"
   xmlns:rdf="http://www.w3.org/1999/02/22-rdf-syntax-ns#"
   xmlns:svg="http://www.w3.org/2000/svg"
   xmlns="http://www.w3.org/2000/svg"
   version="1.1"
   width="200"
   height="200"
   viewBox="0 0 56.444445 56.444446"
   id="svg2"
   xml:space="preserve"
   style="fill-rule:evenodd"><metadata
   id="metadata61"><rdf:RDF><cc:Work
       rdf:about=""><dc:format>image/svg+xml</dc:format><dc:type
         rdf:resource="http://purl.org/dc/dcmitype/StillImage" /><dc:title></dc:title></cc:Work></rdf:RDF></metadata>
 <defs
   id="defs4"><style
     type="text/css"
     id="style6" /><style
     type="text/css"
     id="style3082" /><style
     type="text/css"
     id="style3044" /></defs>
 <g
   transform="matrix(0.04031746,0,0,0.04031746,8.4666666,25.4)"
   id="g3200"><path
     d="m 0,20 0,100 60,0 0,-20.000001 -40,0 L 20,20 z"
     id="rect3023"
     style="fill:#9000cc;fill-opacity:1;stroke:none" /><path
     d="m 80,20 0,100 60,0 0,-20.000001 -40,0 0,-20 40,0 L 140,60 l -40,0 0,-20 40,0 0,-20 z"
     id="rect3004"
     style="fill:#9000cc;fill-opacity:1;stroke:none" /><path
     d="m 210,40.000003 0,20 20,0 c 5.52285,0 10,4.47715 10,10 0,5.52285 -4.47715,9.999995 -10,9.999995 l -20,0 0,20 20,0 c 16.56854,0 30,-13.43146 30,-29.999995 0,-16.56854 -13.43146,-30 -30,-30 z m 20,-40 c -38.65993,0 -70,31.34007 -70,70 C 160,108.65993 191.34007,140 230,140 c 38.65993,0 70,-31.34007 70,-69.999997 0,-38.65993 -31.34007,-70 -70,-70 z m 0,20 c 27.61424,0 50,22.38576 50,50 C 280,97.614236 257.61424,120 230,120 c -27.61424,0 -50,-22.385764 -50,-49.999997 0,-27.61424 22.38576,-50 50,-50 z"
     id="path3029"
     style="fill:#9000cc;fill-opacity:1;stroke:none" /><path
     d="m 320,20 0,100 20,0 0,-62.78125 40,62.78125 20,0 0,-100 -20,0 0,62.78125 L 340,20 z"
     id="rect3051"
     style="fill:#ff0000;fill-opacity:1;stroke:none" /><rect
     width="20"
     height="100"
     x="420"
     y="20"
     id="rect3002"
     style="fill:#9000cc;fill-opacity:1;stroke:none" /><path
     d="m 460,20 0,100 50,0 c 16.56854,0 30,-13.43146 30,-30 l 0,-40 C 540,33.43146 526.56854,20 510,20 z m 20,20 30,0 c 5.52285,0 10,4.47715 10,10 l 0,40 c 0,5.522847 -4.47715,10 -10,10 l -30,0 z"
     id="path3053"
     style="fill:#9000cc;fill-opacity:1;stroke:none" /><path
     d="m 660,20 -20,20 30,0 c 5.52285,0 10,4.47715 10,10 0,5.52285 -4.47715,10 -10,10 -16.56854,0 -30,13.43146 -30,30 l 0,30 60,0 0,-20 -40,0 0,-10 c 0,-5.52285 4.47715,-10 10,-10 16.56854,0 30,-13.43146 30,-30 0,-16.56853 -13.43146,-30 -30,-30 l -10,0 z"
     id="path3071"
     style="fill:#9000cc;fill-opacity:1;stroke:none" /><path
     d="m 790,3e-6 c -38.65993,0 -70,31.34007 -70,70 C 720,108.65993 751.34007,140 790,140 c 38.65993,0 70,-31.34007 70,-69.999997 0,-38.65993 -31.34007,-70 -70,-70 z m 0,20 c 27.61424,0 50,22.38576 50,50 C 840,97.614238 817.61424,120 790,120 c -27.61424,0 -50,-22.385762 -50,-49.999997 0,-27.61424 22.38576,-50 50,-50 z"
     id="path3041"
     style="fill:#9000cc;fill-opacity:1;stroke:none" /><path
     d="m 880,40 0,80 20,0 0,-100 z"
     id="rect3068"
     style="fill:#9000cc;fill-opacity:1;stroke:none" /><path
     d="m 920,20 0,60 30,0 c 5.52285,0 10,4.47715 10,10 0,5.52285 -4.47715,10 -10,10 l -30,0 20,20 10,0 c 16.56854,0 30,-13.43146 30,-30 0,-16.56854 -13.43146,-30 -30,-30 l -10,0 0,-20 40,0 0,-20 z"
     id="path3043"
     style="fill:#9000cc;fill-opacity:1;stroke:none" /></g><g
   id="g3182" />
<path
   d="M 31.726811,56.223112 C 16.264968,58.158315 2.1565619,47.188653 0.22132689,31.726811 -1.7138451,16.264969 9.2557849,2.156561 24.717628,0.22132666 40.17947,-1.7138456 54.287878,9.2557852 56.223111,24.717627 c 1.935203,15.461842 -9.034458,29.57025 -24.4963,31.505485 z"
   id="path3090"
   style="fill:#ffcf00;fill-rule:evenodd" /><path
   d="m 28.222095,1.2414338 c -14.898802,0 -26.9811892,12.0823882 -26.9811892,26.9811892 0,14.898801 12.0823872,26.981189 26.9811892,26.981189 14.898802,0 26.981188,-12.082388 26.981188,-26.981189 0,-14.898801 -12.082386,-26.9811892 -26.981188,-26.9811892 z"
   id="path3092"
   style="fill:#2b69a9;fill-rule:evenodd" /><path
   d="m 54.046858,30.408909 c -1.211059,1.41226 -2.352017,2.038599 -2.70811,2.799207 -0.47856,1.02166 0.945876,1.903367 1.658404,0.967617 0.528285,-0.694048 0.95743,-2.620058 1.049706,-3.766824 z m -4.890327,-0.762907 c 0.846455,1.656883 1.808699,2.532937 1.976822,3.35585 0.225676,1.105333 -1.365702,1.628773 -1.838982,0.552139 -0.35103,-0.798563 -0.316927,-2.771627 -0.13784,-3.907989 z M 45.640944,12.263244 c 0.427343,1.457762 0.956032,3.297086 1.422603,3.751295 0.466571,0.454271 1.047781,0.450296 1.401514,0.192412 0.353733,-0.257885 0.551207,-0.818906 0.261456,-1.402104 -0.289751,-0.583229 -1.595696,-1.731145 -3.085573,-2.541603 z m -0.467068,3.59339 c 1.713441,0.725139 3.013702,0.777691 3.671411,1.300075 0.883354,0.701626 6.21e-4,2.125534 -1.053806,1.604982 -0.782194,-0.386065 -2.024375,-1.919456 -2.617605,-2.905057 z m 4.236626,-2.559026 c -0.01997,1.860319 -0.491418,3.073521 -0.275247,3.885097 0.290124,1.090177 1.948031,0.850027 1.892373,-0.324785 -0.04143,-0.871272 -0.95069,-2.622543 -1.617126,-3.560312 z m -2.680624,5.038572 c 1.595851,0.956561 2.876141,1.189566 3.454773,1.798388 0.777101,0.817757 -0.295062,2.104973 -1.266934,1.442698 -0.720852,-0.491169 -1.737543,-2.182496 -2.187839,-3.241086 z m 4.551566,-1.94449 c -0.278694,1.839448 -0.914382,2.97522 -0.813285,3.808972 0.135574,1.119962 1.810781,1.112881 1.919177,-0.05824 0.08023,-0.868569 -0.576458,-2.729324 -1.105892,-3.750736 z m -3.355788,4.616479 c 1.447202,1.169347 2.682611,1.578272 3.170861,2.261698 0.655752,0.917953 -0.585123,2.043413 -1.45537,1.252336 -0.645503,-0.586707 -1.416888,-2.403078 -1.715491,-3.514034 z m 4.777894,-1.292123 c -0.531982,1.782765 -1.319549,2.819023 -1.335482,3.658707 -0.02162,1.127945 1.638277,1.354087 1.908616,0.209432 0.200332,-0.84894 -0.191014,-2.782994 -0.573134,-3.868139 z m -3.965603,4.104531 c 1.27035,1.359366 2.436839,1.936259 2.825234,2.680965 0.521608,1.000291 -0.863817,1.942098 -1.615511,1.037624 -0.557574,-0.670847 -1.068653,-2.576886 -1.209723,-3.718589 z m 4.911199,-0.614599 c -0.774895,1.691358 -1.69903,2.607945 -1.831652,3.437224 -0.178404,1.113968 1.433877,1.568923 1.860878,0.473031 0.316524,-0.812787 0.198158,-2.782497 -0.02923,-3.910255 z m -4.498237,3.512667 c 1.068808,1.522955 2.143642,2.256573 2.424634,3.048084 0.377307,1.063156 -1.125709,1.802985 -1.744221,0.802693 -0.458775,-0.741941 -0.699607,-2.700532 -0.680413,-3.850777 z m 4.948936,0.07488 c -1.002745,1.567059 -2.045432,2.346116 -2.292197,3.148871 -0.331712,1.078312 1.201586,1.753197 1.776926,0.727406 0.426566,-0.760826 0.583477,-2.727834 0.515271,-3.876277 z m -5.345158,5.752126 c 0.607611,1.758539 1.438568,2.76001 1.49053,3.598297 0.06963,1.125988 -1.579079,1.422852 -1.897933,0.290838 -0.236484,-0.839653 0.0719,-2.788771 0.407403,-3.889135 z m 4.736554,1.436082 c -1.39583,1.229943 -2.612852,1.69142 -3.071348,2.395066 -0.616089,0.945099 0.671779,2.016485 1.507612,1.189007 0.619724,-0.613792 1.312747,-2.461315 1.563736,-3.584073 z"
   id="path3097"
   style="fill:#ffcf00;fill-rule:evenodd" /><path
   d="m 147.8533,149.995 c 0,23.20882 -18.81447,42.0233 -42.0233,42.0233 -23.208826,0 -42.023298,-18.81448 -42.023298,-42.0233 0,-23.20883 18.814472,-42.02331 42.023298,-42.02331 23.20883,0 42.0233,18.81448 42.0233,42.02331 z"
   transform="matrix(0.31059164,0,0,0.31059164,-4.6478174,-18.364539)"
   id="circle3099"
   style="fill:#ffcf00" /><path
   d="m 28.70755,7.9274158 c 0.03295,8.076e-4 0.06591,0.00171 0.09883,0.0027 0.113056,0.00339 0.225925,0.0077 0.338514,0.012889 0.09908,0.00457 0.19794,0.00978 0.296708,0.015623 l 0.01891,0.00118 -0.415944,6.8391662 c -0.272171,-0.01631 -0.546113,-0.0255 -0.822354,-0.0255 -0.27624,0 -0.550213,0.0092 -0.822353,0.0255 l -0.415944,-6.8391662 0.01891,-0.00118 c 0.09777,-0.00581 0.195579,-0.010964 0.293664,-0.015498 0.114795,-0.00531 0.229838,-0.00972 0.345098,-0.013138 l 0.09535,-0.00258 c 0.161259,-0.00404 0.323015,-0.00612 0.485268,-0.00612 l 3.2e-5,0 c 0.162284,0 0.324009,0.00208 0.485299,0.00612 z m 2.562816,0.220986 c 0.03575,0.00534 0.07147,0.01084 0.107154,0.016368 0.136194,0.021089 0.271985,0.043638 0.407279,0.067492 l 0.09001,0.01612 c 0.13812,0.02494 0.275744,0.051372 0.41287,0.079139 l 0.08321,0.017051 c 0.136909,0.028264 0.273259,0.058019 0.409143,0.089078 l 0.08616,0.019878 c 0.136971,0.031898 0.273382,0.065193 0.409266,0.099886 l 0.08004,0.020654 c 0.104545,0.027146 0.2085,0.055813 0.312362,0.084543 L 31.838817,15.26269 c -0.524403,-0.144953 -1.061416,-0.259531 -1.609238,-0.340906 l 1.0152,-6.7769539 0.02559,0.00357 z m 6.364861,2.0747522 -3.161139,6.077564 c -0.484399,-0.252511 -0.98588,-0.476541 -1.502301,-0.669977 l 2.401836,-6.4173826 c 0.777473,0.2915834 1.532459,0.6292584 2.261604,1.0097956 z m 3.553541,2.356459 -4.353594,5.284996 c -0.42256,-0.348484 -0.866582,-0.671934 -1.329891,-0.967741 l 3.682188,-5.775576 c 0.697309,0.445761 1.365423,0.933235 2.001297,1.458321 z m 2.986152,3.042245 -5.354693,4.262311 c -0.342209,-0.429331 -0.710043,-0.837106 -1.10083,-1.221743 l 4.799728,-4.880917 c 0.587857,0.57944 1.141176,1.193697 1.655795,1.840349 z m 2.29139,3.59426 -6.121606,3.054731 c -0.246299,-0.492381 -0.521545,-0.96768 -0.823689,-1.423659 l 5.70737,-3.774869 c 0.454147,0.686687 0.867886,1.402383 1.237925,2.143797 z M 16.099982,34.369107 9.9949004,37.415545 c 0.3709386,0.740047 0.7855166,1.454346 1.2405336,2.139604 L 16.923795,35.79289 C 16.621652,35.33688 16.346312,34.861519 16.099982,34.369107 z M 47.95861,23.208649 41.338722,24.923084 c -0.138338,-0.535025 -0.308107,-1.057472 -0.508097,-1.564668 l 6.365327,-2.504859 c 0.30028,0.763496 0.555307,1.54979 0.762658,2.355092 z m -32.852832,8.508254 -6.6094206,1.711733 c 0.208842,0.804339 0.464832,1.589825 0.766323,2.352359 l 6.3512876,-2.499331 c -0.200021,-0.507227 -0.369821,-1.029736 -0.50819,-1.564761 z m 33.474326,-4.292718 -6.825283,0.300311 c -0.02401,-0.554623 -0.08178,-1.100426 -0.170297,-1.635855 l 6.741951,-1.125864 c 0.132343,0.805706 0.218377,1.62691 0.253629,2.461408 z m -33.890519,1.491244 -6.8236666,0.300218 c 0.03699,0.834249 0.124641,1.655205 0.258785,2.460507 l 6.7352106,-1.124715 c -0.08855,-0.535491 -0.14632,-1.081325 -0.170329,-1.63601 z m 33.629932,2.760662 -6.735241,-1.124745 c 0.08877,-0.535398 0.14604,-1.081387 0.170328,-1.635917 l 6.823698,0.300249 c -0.0374,0.834031 -0.124423,1.655174 -0.258785,2.460413 z M 14.85979,26.088517 8.1179014,24.962653 c -0.132778,0.805613 -0.217911,1.627159 -0.25366,2.461532 l 6.8252506,0.300342 c 0.02429,-0.554561 0.0815,-1.100612 0.170298,-1.63601 z m 32.32203,9.692354 -6.351319,-2.499362 c 0.199865,-0.50729 0.370132,-1.029487 0.508128,-1.564668 l 6.609452,1.711733 c -0.208283,0.804556 -0.465018,1.58967 -0.766261,2.352297 z M 15.613906,23.358261 9.2486104,20.853401 c -0.299969,0.763652 -0.555866,1.549635 -0.76272,2.355186 l 6.6198876,1.714435 c 0.137996,-0.535212 0.308294,-1.057441 0.508128,-1.564761 z m 1.309734,-2.511289 -5.707339,-3.774837 c -0.454302,0.686625 -0.867762,1.402569 -1.2379866,2.143889 l 6.1216056,3.054731 c 0.246423,-0.492349 0.521483,-0.967834 0.82372,-1.423783 z m 1.801711,-2.184763 -4.799697,-4.880917 c -0.588105,0.579222 -1.141331,1.193728 -1.655919,1.840442 l 5.354693,4.26228 c 0.34221,-0.4293 0.709919,-0.837293 1.100923,-1.221805 z m 2.214177,-1.765497 -3.682188,-5.775575 c -0.697154,0.445978 -1.365734,0.933017 -2.001391,1.458352 l 4.353563,5.284965 c 0.422436,-0.34867 0.866831,-0.671779 1.330016,-0.967742 z M 23.473086,15.630586 21.071281,9.2132342 C 20.293653,9.5046628 19.538853,9.8426788 18.809552,10.22303 l 3.16114,6.077564 c 0.484461,-0.252387 0.98588,-0.476603 1.502394,-0.670008 z m 2.742246,-0.708833 -1.0152,-6.7769541 -0.0237,0.00329 c -0.03727,0.00559 -0.07445,0.011274 -0.111689,0.017051 -0.134486,0.020934 -0.268569,0.04311 -0.402154,0.066653 l -0.09557,0.017114 c -0.136133,0.024692 -0.271892,0.050626 -0.407062,0.078021 l -0.08995,0.018449 c -0.133057,0.027612 -0.265681,0.056403 -0.397776,0.086593 l -0.101874,0.023512 c -0.13166,0.030811 -0.262884,0.062709 -0.39355,0.096066 l -0.09427,0.024257 c -0.102247,0.026618 -0.203934,0.05454 -0.30556,0.082711 l 1.829075,6.6040791 c 0.524341,-0.145078 1.061447,-0.259438 1.609269,-0.340844 z"
   id="path3101"
   style="fill:#ffcf00;fill-rule:evenodd" /><path
   d="m 7.8443634,30.636262 4.0595256,3.122284 4.275014,-0.621866 7.120314,4.320578 -13.4046376,0 c -1.061851,-2.092829 -1.770839,-4.392014 -2.050216,-6.820996 z m 40.7555256,0 -4.059526,3.122284 -4.275015,-0.621866 -7.120313,4.320578 13.404638,0 c 1.061851,-2.092829 1.770838,-4.392014 2.050216,-6.820996 z"
   id="path3103"
   style="fill:#394095;fill-rule:evenodd" /><path
   d="m 9.4910894,36.333134 37.4620116,0 C 43.834823,43.59166 36.62158,48.676822 28.222095,48.676822 c -8.399486,0 -15.612821,-5.085162 -18.7310986,-12.343688 z"
   id="path3105"
   style="fill:#6699ff;fill-rule:evenodd" /><path
   d="m 9.4988854,36.350837 c 0.5511446,0.06504 1.1234716,0.313232 1.4113896,0.794897 0.340347,-0.569314 1.07766,-0.812569 1.708037,-0.812569 0.630408,0 1.368001,0.243224 1.708347,0.812569 0.340346,-0.569314 1.07766,-0.812569 1.708037,-0.812569 0.630408,0 1.368001,0.243224 1.708347,0.812569 0.340346,-0.569314 1.07766,-0.812569 1.708037,-0.8126 0.630376,0 1.368,0.243255 1.708347,0.8126 0.340346,-0.569314 1.07766,-0.812569 1.708036,-0.812569 0.630408,0 1.368002,0.243224 1.708349,0.812569 0.340346,-0.569314 1.077659,-0.812569 1.708036,-0.812569 0.630501,0 1.367877,0.243224 1.708285,0.812569 0.340315,-0.569252 1.077815,-0.812569 1.70813,-0.812569 0.630501,0 1.367815,0.243193 1.708223,0.812569 0.340315,-0.569283 1.077815,-0.812569 1.70813,-0.8126 0.630501,0 1.367845,0.243255 1.708254,0.8126 0.340315,-0.569283 1.077815,-0.812569 1.70813,-0.8126 0.630501,0 1.367845,0.243255 1.708254,0.8126 0.340315,-0.569252 1.077877,-0.812569 1.70816,-0.812569 0.630501,0 1.367815,0.243193 1.708223,0.812569 0.340316,-0.569283 1.077815,-0.812569 1.70813,-0.8126 0.630501,0 1.367846,0.243255 1.708254,0.8126 0.340315,-0.569283 1.077877,-0.8126 1.708192,-0.8126 0.05463,0 0.110788,0.0022 0.168061,0.0066 -1.914207,4.4514 -5.369104,8.08411 -9.692664,10.227534 l -18.07103,0 C 14.866623,44.425615 11.414055,40.797128 9.4988854,36.350822 z"
   id="_140132856"
   style="fill:#ffffff;fill-rule:nonzero" /><path
   d="m 29.544905,46.23231 0,-2.17e-4 0,-9.3e-5 6.21e-4,0 c -6.2e-5,-0.278104 -0.166322,-0.534187 -0.434952,-0.723244 -0.284471,-0.200269 -0.679668,-0.324227 -1.117913,-0.32432 l 0,6.21e-4 -6.21e-4,0 -3.11e-4,0 0,-6.21e-4 c -0.438493,3.1e-5 -0.833845,0.124051 -1.11844,0.324444 -0.268507,0.189057 -0.434673,0.445109 -0.434735,0.72312 l 6.21e-4,0 0,9.3e-5 0,2.17e-4 -6.21e-4,0 0,0.355441 3.106413,3.1e-5 0,-0.355472 z m 6.83342,3.1e-5 c -1.55e-4,-0.735978 -0.962524,-1.047905 -1.553642,-1.047905 -0.591055,0 -1.553237,0.312083 -1.553393,1.047905 l 0,0.355783 3.106414,3.1e-5 6.21e-4,-0.355814 z m -3.416384,0 c -1.55e-4,-0.735978 -0.962523,-1.047905 -1.553641,-1.047905 -0.591056,0 -1.553238,0.312083 -1.553393,1.047905 l 0,0.355783 3.106413,3.1e-5 6.21e-4,-0.355814 z m -6.832768,0 c -1.55e-4,-0.735978 -0.962523,-1.047905 -1.553641,-1.047905 -0.591056,0 -1.553239,0.312083 -1.553394,1.047905 l 0,0.355783 3.106414,3.1e-5 6.21e-4,-0.355814 z m -3.416384,0 c -1.56e-4,-0.735978 -0.962524,-1.047905 -1.553642,-1.047905 -0.591056,0 -1.553238,0.312083 -1.553393,1.047905 l 0,0.355783 3.106414,3.1e-5 6.21e-4,-0.355814 z M 38.086517,44.52387 c -1.55e-4,-0.735978 -0.962524,-1.047905 -1.553642,-1.047905 -0.591056,0 -1.553237,0.312082 -1.553393,1.047905 l 0,0.355783 c 0.583353,0.03466 1.239975,0.282638 1.553486,0.806979 0.313325,-0.524092 0.969947,-0.772193 1.552928,-0.806948 l 6.21e-4,-0.355814 z m -3.416384,0 c -1.55e-4,-0.735978 -0.962523,-1.047905 -1.553641,-1.047905 -0.591056,0 -1.553238,0.312082 -1.553394,1.047905 l 0,0.355783 c 0.583354,0.03466 1.239975,0.282638 1.553487,0.806979 0.313325,-0.524092 0.969946,-0.772193 1.552927,-0.806948 l 6.21e-4,-0.355814 z m -3.416384,0 c -1.55e-4,-0.735978 -0.962523,-1.047905 -1.553641,-1.047905 -0.591056,0 -1.553238,0.312082 -1.553393,1.047905 l 0,0.355783 c 0.583353,0.03466 1.239975,0.282638 1.553486,0.806979 0.313325,-0.524092 0.969947,-0.772193 1.552927,-0.806948 l 6.21e-4,-0.355814 z m -3.416384,0 c -1.55e-4,-0.735978 -0.962523,-1.047905 -1.553641,-1.047905 -0.591056,0 -1.553238,0.312082 -1.553393,1.047905 l 0,0.355783 c 0.583353,0.03466 1.239975,0.282638 1.553486,0.806979 0.313325,-0.524092 0.969947,-0.772193 1.552927,-0.806948 l 6.21e-4,-0.355814 z m -3.416383,0 c -1.56e-4,-0.735978 -0.962525,-1.047905 -1.553643,-1.047905 -0.591056,0 -1.553238,0.312082 -1.553393,1.047905 l 0,0.355783 c 0.583353,0.03466 1.239975,0.282638 1.553486,0.806979 0.313325,-0.524092 0.969947,-0.772193 1.552928,-0.806948 l 6.22e-4,-0.355814 z m -3.416385,0 c -1.56e-4,-0.735978 -0.962524,-1.047905 -1.553642,-1.047905 -0.591056,0 -1.553237,0.312082 -1.553393,1.047905 l 0,0.355783 c 0.583353,0.03466 1.239975,0.282638 1.553486,0.806979 0.313325,-0.524092 0.969947,-0.772193 1.552928,-0.806948 l 6.21e-4,-0.355814 z m 8.540308,-1.707819 0,-2.18e-4 0,-9.3e-5 6.21e-4,0 c -6.2e-5,-0.278104 -0.166322,-0.534186 -0.434952,-0.723244 -0.284471,-0.200269 -0.679668,-0.324226 -1.117913,-0.324319 l 0,6.21e-4 -6.21e-4,0 -3.11e-4,0 0,-6.21e-4 c -0.438493,3.1e-5 -0.833845,0.12405 -1.11844,0.324444 -0.268507,0.189057 -0.434673,0.445109 -0.434735,0.723119 l 6.21e-4,0 0,9.3e-5 0,2.18e-4 -6.21e-4,0 0,0.355441 c 0.443245,0.02637 0.843039,0.164986 1.142201,0.375567 0.173154,0.121845 0.313573,0.268072 0.411254,0.431443 0.09765,-0.16334 0.238037,-0.309473 0.411099,-0.431319 0.299069,-0.21055 0.698707,-0.349229 1.141859,-0.37566 l 0,-0.355472 z m -10.2485,3.1e-5 c -1.55e-4,-0.735978 -0.962524,-1.047905 -1.553642,-1.047905 -0.591056,0 -1.553237,0.312082 -1.553393,1.047905 l 0,0.355783 c 0.583354,0.03466 1.239975,0.282638 1.553487,0.806979 0.313324,-0.524093 0.969946,-0.772193 1.552927,-0.806948 l 6.21e-4,-0.355814 z m 20.498304,0 c -1.56e-4,-0.735978 -0.962524,-1.047905 -1.553642,-1.047905 -0.591056,0 -1.553238,0.312082 -1.553393,1.047905 l 0,0.355783 c 0.583353,0.03466 1.239975,0.282638 1.553486,0.806979 0.313325,-0.524093 0.969947,-0.772193 1.552928,-0.806948 l 6.21e-4,-0.355814 z m -3.416384,0 c -1.55e-4,-0.735978 -0.962524,-1.047905 -1.553642,-1.047905 -0.591055,0 -1.553237,0.312082 -1.553393,1.047905 l 0,0.355783 c 0.583354,0.03466 1.239975,0.282638 1.553487,0.806979 0.313324,-0.524093 0.969946,-0.772193 1.552927,-0.806948 l 6.21e-4,-0.355814 z m -3.416384,0 c -1.55e-4,-0.735978 -0.962523,-1.047905 -1.553641,-1.047905 -0.591056,0 -1.553238,0.312082 -1.553393,1.047905 l 0,0.355783 c 0.583353,0.03466 1.239975,0.282638 1.553486,0.806979 0.313325,-0.524093 0.969946,-0.772193 1.552927,-0.806948 l 6.21e-4,-0.355814 z m -6.832768,0 c -1.55e-4,-0.735978 -0.962523,-1.047905 -1.553641,-1.047905 -0.591056,0 -1.553239,0.312082 -1.553394,1.047905 l 0,0.355783 c 0.583353,0.03466 1.239976,0.282638 1.553487,0.806979 0.313325,-0.524093 0.969947,-0.772193 1.552927,-0.806948 l 6.21e-4,-0.355814 z m -3.416384,0 c -1.56e-4,-0.735978 -0.962524,-1.047905 -1.553642,-1.047905 -0.591056,0 -1.553238,0.312082 -1.553393,1.047905 l 0,0.355783 c 0.583353,0.03466 1.239975,0.282638 1.553486,0.806979 0.313325,-0.524093 0.969947,-0.772193 1.552928,-0.806948 l 6.21e-4,-0.355814 z M 17.588213,41.10761 c -1.55e-4,-0.735978 -0.962524,-1.047905 -1.553642,-1.047905 -0.591055,0 -1.553237,0.312083 -1.553393,1.047905 l 0,0.355783 c 0.583354,0.03466 1.239975,0.282638 1.553487,0.806979 0.313325,-0.524092 0.969946,-0.772193 1.552927,-0.806948 l 6.21e-4,-0.355814 z m 20.498304,0 c -1.55e-4,-0.735978 -0.962524,-1.047905 -1.553642,-1.047905 -0.591056,0 -1.553237,0.312083 -1.553393,1.047905 l 0,0.355783 c 0.583353,0.03466 1.239975,0.282638 1.553486,0.806979 0.313325,-0.524092 0.969947,-0.772193 1.552928,-0.806948 l 6.21e-4,-0.355814 z m 3.416384,0 c -1.56e-4,-0.735978 -0.962524,-1.047905 -1.553642,-1.047905 -0.591056,0 -1.553238,0.312083 -1.553393,1.047905 l 0,0.355783 c 0.583353,0.03466 1.239975,0.282638 1.553486,0.806979 0.313325,-0.524092 0.969947,-0.772193 1.552927,-0.806948 l 6.22e-4,-0.355814 z m -6.832768,0 c -1.55e-4,-0.735978 -0.962523,-1.047905 -1.553641,-1.047905 -0.591056,0 -1.553238,0.312083 -1.553394,1.047905 l 0,0.355783 c 0.583354,0.03466 1.239975,0.282638 1.553487,0.806979 0.313325,-0.524092 0.969946,-0.772193 1.552927,-0.806948 l 6.21e-4,-0.355814 z m -3.416384,0 c -1.55e-4,-0.735978 -0.962523,-1.047905 -1.553641,-1.047905 -0.591056,0 -1.553238,0.312083 -1.553393,1.047905 l 0,0.355783 c 0.583353,0.03466 1.239975,0.282638 1.553486,0.806979 0.313325,-0.524092 0.969947,-0.772193 1.552927,-0.806948 l 6.21e-4,-0.355814 z m -3.416384,0 c -1.55e-4,-0.735978 -0.962523,-1.047905 -1.553641,-1.047905 -0.591056,0 -1.553238,0.312083 -1.553393,1.047905 l 0,0.355783 c 0.583353,0.03466 1.239975,0.282638 1.553486,0.806979 0.313325,-0.524092 0.969947,-0.772193 1.552927,-0.806948 l 6.21e-4,-0.355814 z m -3.416383,0 c -1.56e-4,-0.735978 -0.962525,-1.047905 -1.553643,-1.047905 -0.591056,0 -1.553238,0.312083 -1.553393,1.047905 l 0,0.355783 c 0.583353,0.03466 1.239975,0.282638 1.553486,0.806979 0.313325,-0.524092 0.969947,-0.772193 1.552928,-0.806948 l 6.22e-4,-0.355814 z m -3.416385,0 c -1.56e-4,-0.735978 -0.962524,-1.047905 -1.553642,-1.047905 -0.591056,0 -1.553237,0.312083 -1.553393,1.047905 l 0,0.355783 c 0.583353,0.03466 1.239975,0.282638 1.553486,0.806979 0.313325,-0.524092 0.969947,-0.772193 1.552928,-0.806948 l 6.21e-4,-0.355814 z m 8.540308,-1.70816 0,-2.18e-4 0,-9.3e-5 6.21e-4,0 c -6.2e-5,-0.278104 -0.166322,-0.534187 -0.434952,-0.723244 -0.284471,-0.200269 -0.679668,-0.324226 -1.117913,-0.32432 l 0,6.22e-4 -6.21e-4,0 -3.11e-4,0 0,-6.22e-4 c -0.438493,3.1e-5 -0.833845,0.124051 -1.11844,0.324444 -0.268507,0.189058 -0.434673,0.445109 -0.434735,0.72312 l 6.21e-4,0 0,9.3e-5 0,2.18e-4 -6.21e-4,0 0,0.355441 c 0.443245,0.02637 0.843039,0.164986 1.142201,0.375567 0.173154,0.121845 0.313573,0.268072 0.411254,0.431443 0.09765,-0.16334 0.238037,-0.309474 0.411099,-0.431319 0.299069,-0.21055 0.698707,-0.349229 1.141859,-0.37566 l 0,-0.355472 z m -10.2485,3.1e-5 c -1.55e-4,-0.735978 -0.962524,-1.047906 -1.553642,-1.047906 -0.591056,0 -1.553237,0.312083 -1.553393,1.047906 l 0,0.355782 c 0.583354,0.03466 1.239975,0.282639 1.553487,0.806979 0.313324,-0.524092 0.969946,-0.772192 1.552927,-0.806948 l 6.21e-4,-0.355813 z m -3.416384,0 c -1.55e-4,-0.735978 -0.962523,-1.047906 -1.553641,-1.047906 -0.591056,0 -1.553238,0.312083 -1.553393,1.047906 l 0,0.355782 c 0.583353,0.03466 1.239975,0.282639 1.553486,0.806979 0.313325,-0.524092 0.969946,-0.772192 1.552927,-0.806948 l 6.21e-4,-0.355813 z m 23.914688,0 c -1.56e-4,-0.735978 -0.962524,-1.047906 -1.553642,-1.047906 -0.591056,0 -1.553238,0.312083 -1.553393,1.047906 l 0,0.355782 c 0.583353,0.03466 1.239975,0.282639 1.553486,0.806979 0.313325,-0.524092 0.969947,-0.772192 1.552928,-0.806948 l 6.21e-4,-0.355813 z m 3.416384,0 c -1.56e-4,-0.735978 -0.962524,-1.047906 -1.553642,-1.047906 -0.591056,0 -1.553238,0.312083 -1.553393,1.047906 l 0,0.355782 c 0.583353,0.03466 1.239975,0.282639 1.553486,0.806979 0.313325,-0.524092 0.969947,-0.772192 1.552927,-0.806948 l 6.22e-4,-0.355813 z m -6.832768,0 c -1.55e-4,-0.735978 -0.962524,-1.047906 -1.553642,-1.047906 -0.591055,0 -1.553237,0.312083 -1.553393,1.047906 l 0,0.355782 c 0.583354,0.03466 1.239975,0.282639 1.553487,0.806979 0.313324,-0.524092 0.969946,-0.772192 1.552927,-0.806948 l 6.21e-4,-0.355813 z m -3.416384,0 c -1.55e-4,-0.735978 -0.962523,-1.047906 -1.553641,-1.047906 -0.591056,0 -1.553238,0.312083 -1.553393,1.047906 l 0,0.355782 c 0.583353,0.03466 1.239975,0.282639 1.553486,0.806979 0.313325,-0.524092 0.969946,-0.772192 1.552927,-0.806948 l 6.21e-4,-0.355813 z m -6.832768,0 c -1.55e-4,-0.735978 -0.962523,-1.047906 -1.553641,-1.047906 -0.591056,0 -1.553239,0.312083 -1.553394,1.047906 l 0,0.355782 c 0.583353,0.03466 1.239976,0.282639 1.553487,0.806979 0.313325,-0.524092 0.969947,-0.772192 1.552927,-0.806948 l 6.21e-4,-0.355813 z m -3.416384,0 c -1.56e-4,-0.735978 -0.962524,-1.047906 -1.553642,-1.047906 -0.591056,0 -1.553238,0.312083 -1.553393,1.047906 l 0,0.355782 c 0.583353,0.03466 1.239975,0.282639 1.553486,0.806979 0.313325,-0.524092 0.969947,-0.772192 1.552928,-0.806948 l 6.21e-4,-0.355813 z m -11.174125,0.59882 c -0.364417,-0.518719 -0.705478,-1.054986 -1.021225,-1.607653 0.138679,-0.02637 0.273103,-0.03907 0.392495,-0.03907 0.591118,0 1.553486,0.311928 1.553641,1.047906 l -6.21e-4,0.355813 c -0.308076,0.01836 -0.63662,0.09625 -0.92429,0.243007 z m 1.468975,1.854077 c -0.45421,-0.509588 -0.882919,-1.042377 -1.284763,-1.595913 0.293292,-0.134486 0.631278,-0.19676 0.895312,-0.19676 0.591118,0 1.553486,0.311927 1.553641,1.047905 l -6.21e-4,0.355814 c -0.397744,0.0237 -0.829683,0.146724 -1.163569,0.388954 z m 1.711981,1.705738 c -0.525956,-0.465887 -1.02781,-0.958237 -1.503109,-1.475496 0.329818,-0.216234 0.778219,-0.314443 1.109869,-0.314443 0.591118,0 1.553486,0.311927 1.553641,1.047905 l -6.21e-4,0.355814 c -0.396284,0.02364 -0.826422,0.145791 -1.15978,0.38622 z m 1.978965,1.547088 c -0.603697,-0.414919 -1.183975,-0.861395 -1.738381,-1.337283 0.325966,-0.200549 0.754458,-0.291956 1.074367,-0.291956 0.591118,0 1.553487,0.311927 1.553642,1.047905 l -6.21e-4,0.355814 c -0.295559,0.01761 -0.60994,0.09007 -0.889007,0.22552 z m 2.530732,1.482951 c -0.768155,-0.378673 -1.509103,-0.80406 -2.218929,-1.272898 0.250337,-0.08902 0.516141,-0.130821 0.732375,-0.130821 0.591118,0 1.553487,0.311927 1.553642,1.047905 l -6.21e-4,0.355814 -0.06647,0 z m 20.018781,-1.15099 c -0.652956,0.421131 -1.331972,0.805302 -2.033288,1.150959 l -0.527136,0 0,-0.355783 c 1.55e-4,-0.735822 0.962337,-1.047905 1.553393,-1.047905 0.298292,0 0.691036,0.07945 1.007031,0.252729 z m 2.014312,-1.481522 c -0.552419,0.460762 -1.129467,0.892919 -1.729095,1.294017 -0.330128,-0.229806 -0.749893,-0.346993 -1.137449,-0.370007 l 0,-0.355783 c 1.55e-4,-0.735823 0.962337,-1.047905 1.553393,-1.047905 0.406782,0 0.989297,0.147686 1.313151,0.479678 z m 1.758631,-1.651882 c -0.483808,0.511141 -0.993769,0.997185 -1.527769,1.456116 -0.346092,-0.375475 -0.893976,-0.558599 -1.389214,-0.588012 l 0,-0.355783 c 1.55e-4,-0.735823 0.962337,-1.047905 1.553393,-1.047905 0.428927,0 1.053185,0.164241 1.36359,0.535584 z m 1.558767,-1.854077 c -0.422219,0.567513 -0.873601,1.11198 -1.351291,1.63188 -0.344074,-0.395849 -0.907953,-0.587981 -1.416267,-0.618171 l 0,-0.355783 c 1.55e-4,-0.735822 0.962337,-1.047905 1.553393,-1.047905 0.368113,0 0.880123,0.120945 1.214165,0.389979 z m 1.281967,-1.946819 c -0.339508,0.58562 -0.707,1.153009 -1.101296,1.699837 -0.342645,-0.28121 -0.81111,-0.421939 -1.240037,-0.447439 l 0,-0.355782 c 1.55e-4,-0.735823 0.962337,-1.047906 1.553393,-1.047906 0.232322,0 0.521887,0.04811 0.78794,0.15129 z m 0.954541,-1.859357 c -0.243193,0.540957 -0.50965,1.069056 -0.797444,1.583769 -0.253194,-0.10672 -0.529031,-0.164956 -0.790238,-0.180485 l 0,-0.355783 c 1.55e-4,-0.735823 0.962337,-1.047905 1.553393,-1.047905 0.01131,0 0.0227,1.86e-4 0.03429,3.11e-4 z m -1.897032,1.047501 c -1.55e-4,-0.735978 -0.962523,-1.047905 -1.553641,-1.047905 -0.591056,0 -1.553238,0.312082 -1.553393,1.047905 l 0,0.355783 c 0.583353,0.03466 1.239975,0.282638 1.553486,0.806979 0.313325,-0.524092 0.969947,-0.772193 1.552927,-0.806948 l 6.21e-4,-0.355814 z m -3.416383,0 c -1.56e-4,-0.735978 -0.962524,-1.047905 -1.553642,-1.047905 -0.591056,0 -1.553238,0.312082 -1.553393,1.047905 l 0,0.355783 c 0.583353,0.03466 1.239975,0.282638 1.553486,0.806979 0.313325,-0.524092 0.969947,-0.772193 1.552927,-0.806948 l 6.22e-4,-0.355814 z m -3.416384,0 c -1.55e-4,-0.735978 -0.962524,-1.047905 -1.553642,-1.047905 -0.591056,0 -1.553237,0.312082 -1.553393,1.047905 l 0,0.355783 c 0.583353,0.03466 1.239975,0.282638 1.553486,0.806979 0.313325,-0.524092 0.969947,-0.772193 1.552928,-0.806948 l 6.21e-4,-0.355814 z m -3.416384,0 c -1.55e-4,-0.735978 -0.962523,-1.047905 -1.553641,-1.047905 -0.591056,0 -1.553238,0.312082 -1.553394,1.047905 l 0,0.355783 c 0.583354,0.03466 1.239975,0.282638 1.553487,0.806979 0.313325,-0.524092 0.969946,-0.772193 1.552927,-0.806948 l 6.21e-4,-0.355814 z m -3.416384,0 c -1.55e-4,-0.735978 -0.962523,-1.047905 -1.553641,-1.047905 -0.591056,0 -1.553238,0.312082 -1.553393,1.047905 l 0,0.355783 c 0.583353,0.03466 1.239975,0.282638 1.553486,0.806979 0.313325,-0.524092 0.969947,-0.772193 1.552927,-0.806948 l 6.21e-4,-0.355814 z m -3.416384,0 c -1.55e-4,-0.735978 -0.962523,-1.047905 -1.553641,-1.047905 -0.591056,0 -1.553238,0.312082 -1.553393,1.047905 l 0,0.355783 c 0.583353,0.03466 1.239975,0.282638 1.553486,0.806979 0.313325,-0.524092 0.969947,-0.772193 1.552927,-0.806948 l 6.21e-4,-0.355814 z m -3.416383,0 c -1.56e-4,-0.735978 -0.962525,-1.047905 -1.553643,-1.047905 -0.591056,0 -1.553238,0.312082 -1.553393,1.047905 l 0,0.355783 c 0.583353,0.03466 1.239975,0.282638 1.553486,0.806979 0.313325,-0.524092 0.969947,-0.772193 1.552928,-0.806948 l 6.22e-4,-0.355814 z m -3.416385,0 c -1.56e-4,-0.735978 -0.962524,-1.047905 -1.553642,-1.047905 -0.591056,0 -1.553237,0.312082 -1.553393,1.047905 l 0,0.355783 c 0.583353,0.03466 1.239975,0.282638 1.553486,0.806979 0.313325,-0.524092 0.969947,-0.772193 1.552928,-0.806948 l 6.21e-4,-0.355814 z m -3.416384,0 c -1.55e-4,-0.735978 -0.962524,-1.047905 -1.553642,-1.047905 -0.591055,0 -1.553237,0.312082 -1.553393,1.047905 l 0,0.355783 c 0.583354,0.03466 1.239975,0.282638 1.553487,0.806979 0.313325,-0.524092 0.969946,-0.772193 1.552927,-0.806948 l 6.21e-4,-0.355814 z m -3.416384,0 c -1.55e-4,-0.735978 -0.962523,-1.047905 -1.553641,-1.047905 -0.591056,0 -1.553238,0.312082 -1.553393,1.047905 l 0,0.355783 c 0.583353,0.03466 1.239975,0.282638 1.553486,0.806979 0.313325,-0.524092 0.969946,-0.772193 1.552927,-0.806948 l 6.21e-4,-0.355814 z m -3.815463,0.412031 c -0.252697,-0.459458 -0.4886536,-0.92929 -0.7060986,-1.409434 0.5329746,0.114671 1.1049916,0.429921 1.1051156,0.997403 l -6.21e-4,0.355814 c -0.130697,0.0078 -0.264997,0.02628 -0.398396,0.05622 z"
   id="_140132784"
   style="fill:#6699ff;fill-rule:nonzero" /><path
   d="M 14.958154,51.720465 C 12.440809,50.296184 10.175447,48.478664 8.2441884,46.352261 l 4.8467506,0.207972 -0.262388,-4.368223 c 1.488169,1.63834 3.233725,3.038704 5.173494,4.136056 l -3.043891,5.392399 z m 26.528192,0 c 2.517345,-1.424281 4.782708,-3.241801 6.713966,-5.368204 l -4.846751,0.207972 0.262388,-4.368223 c -1.488169,1.63834 -3.233725,3.038704 -5.173494,4.136056 l 3.043891,5.392399 z"
   id="path3110"
   style="fill:#a90000;fill-rule:evenodd" /><path
   d="M 18.05351,9.3784998 C 16.170983,10.396495 14.460462,11.687873 12.973163,13.197628 L 13.154082,9.2609721 9.0047334,9.2874971 C 10.879123,7.3848438 13.034784,5.7577163 15.407238,4.4747244 l 2.646272,4.9037764 z m 20.33748,3.1e-5 c 1.882527,1.0179952 3.592986,2.3093732 5.080285,3.8190972 l -0.18092,-3.9366559 4.14935,0.026525 C 45.565346,7.3848749 43.409685,5.7577474 41.037262,4.4747554 L 38.39099,9.3785318 z"
   id="path3112"
   style="fill:#a90000;fill-rule:evenodd" /><path
   d="m 16.186047,5.9180743 -2.378169,0.4792429 1.599267,-1.9226244 0.778902,1.4433815 z m 24.072344,0 2.378169,0.4792429 -1.599267,-1.9226244 -0.778902,1.4433815 z"
   id="path3114"
   style="fill:#800000;fill-rule:evenodd" /><path
   d="m 28.222406,7.6584124 c 4.188018,0 8.083116,1.2537032 11.332899,3.4046436 l 3.081473,-4.6657388 c -4.133385,-2.7357844 -9.087632,-4.330455 -14.414372,-4.330455 -5.326741,0 -10.280988,1.5947017 -14.414373,4.330455 l 3.081442,4.6657388 C 20.139226,8.9121156 24.034388,7.6584124 28.222406,7.6584124 z"
   id="path3116"
   style="fill:#bb0000;fill-rule:evenodd" /><path
   d="m 17.845942,7.0929493 0.361684,-0.1610107 c 0.578384,-0.2575116 1.024921,-0.3553169 1.340079,-0.2944409 0.315436,0.061621 0.531795,0.2231601 0.649043,0.4864797 0.14194,0.3187602 0.129765,0.5980131 -0.03671,0.835212 -0.16685,0.2382237 -0.443525,0.4429347 -0.828845,0.6145055 l -1.837926,0.8182849 -0.08957,-0.2011704 0.295094,-0.1313802 c 0.05473,-0.02435 0.08759,-0.062025 0.09858,-0.1129933 0.01096,-0.050999 0.0054,-0.103427 -0.01836,-0.1566934 L 16.674237,6.3083637 c -0.03721,-0.083611 -0.127001,-0.09414 -0.269035,-0.030935 l -0.249218,0.1109744 -0.08957,-0.2011702 2.804612,-1.2487026 0.512258,1.0649255 -0.194523,0.086624 C 19.103161,5.9376415 18.995883,5.8002047 18.865093,5.6776763 18.733993,5.5543403 18.60373,5.4847057 18.475487,5.4673747 18.346498,5.4503537 18.181015,5.4867867 17.978385,5.5770135 l -0.471851,0.2100842 c -0.134641,0.059944 -0.17626,0.1475931 -0.125541,0.2615181 l 0.464956,1.0443334 z m 0.08892,0.1997104 0.534435,1.2003746 c 0.05532,0.1242677 0.131815,0.1646446 0.22872,0.1215034 l 0.415665,-0.1850505 c 0.177503,-0.079046 0.308945,-0.1978469 0.393923,-0.3553168 0.08454,-0.1563829 0.07228,-0.3591682 -0.03774,-0.6062128 C 19.257141,6.9901745 18.908191,6.8592912 18.422271,7.0756493 l -0.487412,0.2170104 z m 3.793691,-3.3825293 2.085405,2.6966808 c 0.05979,0.076157 0.1152,0.123336 0.166385,0.1423131 0.05041,0.019195 0.111689,0.019536 0.182069,6.833e-4 l 0.123553,-0.033109 0.05699,0.2126931 -1.589858,0.4260075 -0.05699,-0.2126931 0.148587,-0.039818 c 0.117279,-0.031432 0.195052,-0.066529 0.232726,-0.1042656 0.03687,-0.037551 0.04957,-0.077834 0.03805,-0.1208202 -0.009,-0.033637 -0.02811,-0.070442 -0.05883,-0.1099805 L 22.625042,6.2112416 21.36053,6.550066 21.31366,6.8694164 c -0.0182,0.132281 -0.02013,0.2283159 -0.0046,0.2861791 0.02662,0.099358 0.08495,0.1700489 0.175049,0.2121341 0.09004,0.042054 0.198499,0.046527 0.325221,0.012579 l 0.107123,-0.028699 0.05699,0.2126931 -1.284855,0.3442909 -0.05699,-0.2127242 0.07352,-0.019692 c 0.08209,-0.02199 0.147687,-0.068051 0.196449,-0.1364429 0.06867,-0.097184 0.112341,-0.2094631 0.131008,-0.3368677 L 21.472062,3.9788634 21.72858,3.9101294 z M 21.589625,4.8651376 21.394232,6.3004747 22.471084,6.0119351 21.589625,4.8651376 z m 2.695502,-1.5094133 3.059327,-0.2139355 0.171323,1.3238969 -0.215644,0.015095 C 27.230223,4.2007823 27.149248,3.983275 27.057406,3.8298117 26.965506,3.6763484 26.86633,3.5696601 26.758275,3.5098712 c -0.108086,-0.05982 -0.223533,-0.085816 -0.347086,-0.077182 -0.07106,0.00497 -0.121752,0.023108 -0.15278,0.055285 -0.03109,0.031432 -0.0451,0.074604 -0.04125,0.1295167 l 0.189306,2.7071789 c 0.0036,0.051682 0.02274,0.093395 0.05737,0.1242367 0.03463,0.030842 0.07538,0.045067 0.120634,0.041899 l 0.398147,-0.02786 0.01534,0.2196815 -1.872091,0.1309143 -0.01534,-0.2196814 0.378767,-0.026493 c 0.05656,-0.00394 0.100662,-0.023263 0.131411,-0.058671 0.03087,-0.034631 0.04404,-0.078549 0.04028,-0.1318772 L 25.472702,3.6841445 c -0.0044,-0.062988 -0.02463,-0.1086449 -0.06063,-0.1361634 -0.03603,-0.027487 -0.08958,-0.039166 -0.162285,-0.034072 -0.402185,0.028109 -0.648639,0.4154164 -0.739239,1.1619234 l -0.208407,0.014567 -0.01702,-1.3346744 z m 5.135788,1.4528545 0.456321,0.031898 c 0.118739,0.00832 0.218843,-0.00742 0.300311,-0.047148 0.08228,-0.038886 0.138835,-0.093364 0.169583,-0.1618493 0.03075,-0.068454 0.05771,-0.1866656 0.08094,-0.3562797 0.03612,-0.2847815 0.07417,-0.4923188 0.11495,-0.6225499 0.04075,-0.1302621 0.112869,-0.2331611 0.215613,-0.3095667 0.102682,-0.075629 0.23636,-0.107651 0.401937,-0.096066 0.186572,0.013045 0.326556,0.077182 0.419826,0.1940888 0.09327,0.1169066 0.134859,0.2415471 0.125604,0.3739833 -0.0084,0.1195468 -0.05181,0.2187808 -0.131163,0.29764 -0.07933,0.078021 -0.168682,0.1139871 -0.26801,0.107061 -0.09936,-0.00696 -0.179522,-0.044228 -0.240615,-0.1110055 -0.06103,-0.066746 -0.08867,-0.1473757 -0.08209,-0.2418888 0.0034,-0.047645 0.02047,-0.095134 0.05066,-0.1441455 0.02183,-0.033389 0.03252,-0.058609 0.0337,-0.075598 0.0054,-0.077524 -0.02255,-0.1184285 -0.08395,-0.1227147 -0.06299,-0.00441 -0.118863,0.029009 -0.168496,0.1002279 -0.04957,0.07038 -0.09753,0.2804643 -0.143835,0.629445 -0.03795,0.2870799 -0.08998,0.4741803 -0.158495,0.5602763 -0.06774,0.086997 -0.171726,0.1462576 -0.31202,0.1794598 0.311958,0.099731 0.509557,0.2222905 0.592609,0.3693246 0.08305,0.147003 0.14896,0.3650694 0.196977,0.6532984 0.04563,0.2758986 0.108024,0.4165966 0.186386,0.422063 0.104173,0.0073 0.174397,-0.1265661 0.211482,-0.4015329 l 0.208376,0.014567 c -0.06839,0.5487222 -0.317828,0.8080352 -0.746693,0.778032 -0.122777,-0.00857 -0.227726,-0.039445 -0.315779,-0.091873 C 30.447864,6.6845529 30.38037,6.5937978 30.333284,6.4663309 30.285394,6.3388331 30.250444,6.0839616 30.226037,5.7016233 30.213857,5.4930299 30.160097,5.3334169 30.065616,5.2221008 29.971136,5.1108469 29.850438,5.0496293 29.70182,5.0392245 L 29.40623,5.0185705 29.317,6.2946363 c -0.0079,0.1130553 0.0624,0.1756085 0.212631,0.1861065 l 0.248722,0.017393 -0.01534,0.2196815 -1.711391,-0.119671 0.01537,-0.2196814 0.274594,0.019226 c 0.09044,0.00631 0.15014,-0.01143 0.181385,-0.052241 0.03038,-0.040097 0.04662,-0.074666 0.04861,-0.1029301 l 0.189461,-2.7096325 c 0.0084,-0.1195467 -0.0601,-0.1851748 -0.205456,-0.1953622 L 28.28096,3.3183301 28.29633,3.0986486 30.00769,3.2183196 29.99235,3.438001 29.712911,3.418465 c -0.04118,-0.00289 -0.08501,0.00867 -0.130604,0.033886 -0.0464,0.025158 -0.07144,0.069666 -0.07581,0.1326537 l -0.08557,1.2235757 z m 3.26584,-1.2683009 2.976337,0.6871218 -0.208841,1.2106241 -0.202755,-0.046806 c 0.01708,-0.2935402 0.0039,-0.5101157 -0.03845,-0.6503479 C 35.170026,4.5996439 35.097475,4.4856879 34.994918,4.3972003 34.893137,4.3088993 34.748184,4.242184 34.560431,4.1988254 L 34.093425,4.0910191 c -0.07255,-0.016741 -0.128119,-0.013759 -0.167781,0.00699 -0.03889,0.020903 -0.06377,0.056745 -0.0756,0.1079927 l -0.273569,1.184876 0.159364,0.036774 c 0.183808,0.042427 0.337831,0.02317 0.462999,-0.058453 0.1252,-0.081592 0.22316,-0.2359564 0.295808,-0.4643034 l 0.207475,0.047893 -0.366964,1.5895459 -0.207475,-0.047924 c 0.04662,-0.2667361 0.03184,-0.4653905 -0.04497,-0.5969882 -0.07681,-0.1315666 -0.217476,-0.22052 -0.42256,-0.2678542 l -0.131753,-0.030438 -0.291925,1.2645428 c -0.01277,0.055223 -0.0061,0.098302 0.02177,0.1288334 0.04106,0.045191 0.108054,0.078952 0.200362,0.100259 l 0.411752,0.095072 c 0.281644,0.065007 0.532944,0.027487 0.752749,-0.1112228 0.220769,-0.1393004 0.394638,-0.3849784 0.521204,-0.7388354 l 0.208252,0.04808 -0.350813,1.2891728 -3.104146,-0.7166281 0.04954,-0.2145878 0.307641,0.071032 c 0.06945,0.016027 0.125665,0.00991 0.170173,-0.017238 0.04448,-0.027115 0.07355,-0.070256 0.0874,-0.1302 l 0.607175,-2.630059 c 0.01295,-0.056 0.0043,-0.1011907 -0.02603,-0.1356043 -0.03025,-0.034445 -0.09184,-0.062771 -0.185703,-0.08445 l -0.270587,-0.06246 0.04954,-0.2145567 z m 4.302999,1.1568917 1.484379,0.6608769 -0.08954,0.2011702 -0.218905,-0.097464 c -0.06215,-0.027674 -0.114267,-0.03401 -0.156787,-0.020157 -0.04249,0.013852 -0.07451,0.043949 -0.09523,0.090537 l -0.467627,1.0502656 1.221836,0.5440013 0.443587,-0.9962848 c 0.03423,-0.076902 0.04168,-0.1374057 0.02339,-0.1819135 -0.01904,-0.044787 -0.06687,-0.084698 -0.143773,-0.1189566 l -0.186386,-0.08299 0.08954,-0.2011702 1.486647,0.6619018 -0.08957,0.2011702 -0.198965,-0.088581 c -0.07693,-0.034258 -0.137468,-0.043483 -0.182131,-0.028792 -0.04463,0.014691 -0.08103,0.052552 -0.108024,0.1131796 L 38.724753,8.823969 c -0.03162,0.071032 -0.03839,0.1300757 -0.02034,0.1770683 0.01808,0.047023 0.05668,0.083735 0.115819,0.1100736 l 0.223378,0.099452 -0.08957,0.2011699 -1.486616,-0.6619016 0.08954,-0.2011702 0.225614,0.1004454 c 0.06212,0.027674 0.112745,0.033389 0.151569,0.017859 0.03879,-0.015498 0.07286,-0.056186 0.101843,-0.121255 l 0.513035,-1.152326 -1.221837,-0.5440013 -0.513066,1.1523261 c -0.02764,0.062118 -0.03476,0.1138939 -0.02168,0.1542708 0.01301,0.040377 0.04193,0.07097 0.08631,0.090724 l 0.258102,0.1149189 -0.08954,0.2011703 -1.484379,-0.6608769 0.08954,-0.2011702 0.238162,0.1060359 c 0.05547,0.024692 0.101998,0.027674 0.139642,0.010778 0.03768,-0.016927 0.07066,-0.057211 0.09895,-0.1207891 l 1.075486,-2.4155954 c 0.03361,-0.075443 0.04106,-0.1359149 0.02162,-0.1818204 -0.01947,-0.045843 -0.06581,-0.085102 -0.139766,-0.1180559 L 36.900183,4.8983402 36.989753,4.69717 z"
   id="path3118"
   style="fill:#ffffff;fill-rule:nonzero" /><g
   id="g3151"><path
     d="m 9.1727957,42.156199 0.2398245,-3e-4 0.7744368,-1.065923 c 1.655414,-2.278504 -3.4446828,-2.278805 -1.7888785,1.06e-4 z M 7.6510588,42.93226 8.904572,42.52498 8.978623,42.296907 8.2041858,41.230925 C 6.550245,38.954524 4.9725784,43.802538 7.6510588,42.93226 z m 1.5217369,1.27933 0,-1.317797 -0.1940827,-0.14077 -1.2535732,0.40728 c -2.6843711,0.87223 1.4476559,3.866719 1.4476559,1.051287 z m 1.6871503,-1.051287 -1.2535441,-0.40728 -0.1937817,0.14122 0,1.317557 c 0,2.814892 4.1316058,-0.179267 1.4473258,-1.051497 z m -0.479016,-1.929348 -0.7744381,1.065983 0.07408,0.228042 1.2534841,0.40725 c 2.678481,0.870308 1.100814,-3.977615 -0.553126,-1.701275 z"
     id="path3124"
     style="fill:#ffffff;fill-rule:evenodd" /><path
     d="m 9.2925275,41.599737 c -0.5110825,0 -0.9255446,0.414462 -0.9255446,0.925544 0,0.511083 0.4144621,0.925545 0.9255446,0.925545 0.5110825,0 0.9255445,-0.414462 0.9255445,-0.925545 0,-0.511082 -0.414462,-0.925544 -0.9255445,-0.925544 z"
     id="path3126"
     style="fill:#ffcf00;fill-rule:evenodd" /></g><path
   d="m 14.958154,51.720465 -0.223781,-2.056583 1.354987,0.05948 -1.131206,1.997105 z m 26.528192,0 0.223781,-2.056583 -1.354987,0.05948 1.131206,1.997105 z"
   id="path3130"
   style="fill:#800000;fill-rule:evenodd" /><path
   d="m 2.3976428,30.408909 c 1.211059,1.41226 2.352017,2.038599 2.70811,2.799207 0.47856,1.02166 -0.945875,1.903367 -1.658404,0.967617 -0.528285,-0.694048 -0.957429,-2.620058 -1.049706,-3.766824 z m 4.8903266,-0.762907 c -0.8464546,1.656883 -1.8086986,2.532937 -1.9768216,3.35585 -0.225676,1.105333 1.365702,1.628773 1.8389816,0.552139 0.35103,-0.798563 0.316927,-2.771627 0.13784,-3.907989 z M 10.803556,12.263244 c -0.427343,1.457762 -0.9560316,3.297086 -1.4226026,3.751295 -0.466571,0.454271 -1.047781,0.450296 -1.401514,0.192412 -0.353732,-0.257885 -0.551207,-0.818906 -0.261456,-1.402104 0.289751,-0.583229 1.595696,-1.731145 3.0855726,-2.541603 z m 0.467068,3.59339 c -1.7134406,0.725139 -3.0137016,0.777691 -3.6714106,1.300075 -0.8833536,0.701626 -7.76e-4,2.125534 1.053807,1.604982 0.782193,-0.386065 2.0243736,-1.919456 2.6176036,-2.905057 z M 7.0339984,13.297608 c 0.01997,1.860319 0.491419,3.073521 0.275247,3.885097 -0.290124,1.090177 -1.9480306,0.850027 -1.8923726,-0.324785 0.04143,-0.871272 0.95069,-2.622543 1.6171256,-3.560312 z m 2.680624,5.038572 c -1.595851,0.956561 -2.8761406,1.189566 -3.4547726,1.798388 -0.7771,0.817757 0.295062,2.104973 1.2669336,1.442698 0.720852,-0.491169 1.737543,-2.182496 2.187839,-3.241086 z M 5.1630578,16.39169 c 0.278693,1.839448 0.914381,2.97522 0.813284,3.808972 -0.135573,1.119962 -1.810781,1.112881 -1.919177,-0.05824 -0.08023,-0.868569 0.576458,-2.729324 1.105893,-3.750736 z m 3.3557866,4.616479 c -1.447202,1.169347 -2.6826106,1.578272 -3.1708606,2.261698 -0.655752,0.917953 0.585123,2.043413 1.45537,1.252336 0.6455026,-0.586707 1.4168876,-2.403078 1.7154906,-3.514034 z M 3.7409518,19.716046 c 0.531981,1.782765 1.319548,2.819023 1.335482,3.658707 0.02162,1.127945 -1.638278,1.354087 -1.908617,0.209432 -0.200332,-0.84894 0.191014,-2.782994 0.573135,-3.868139 z m 3.9656026,4.104531 c -1.2703506,1.359366 -2.4368396,1.936259 -2.8252346,2.680965 -0.521608,1.000291 0.863817,1.942098 1.615511,1.037624 0.5575736,-0.670847 1.0686526,-2.576886 1.2097236,-3.718589 z M 2.7953548,23.205978 c 0.774895,1.691358 1.69903,2.607945 1.831652,3.437224 0.178404,1.113968 -1.433877,1.568923 -1.860878,0.473031 -0.316524,-0.812787 -0.198158,-2.782497 0.02923,-3.910255 z m 4.4982366,3.512667 c -1.0688076,1.522955 -2.1436406,2.256573 -2.4246336,3.048084 -0.377306,1.063156 1.125709,1.802985 1.744221,0.802693 0.4587746,-0.741941 0.6996076,-2.700532 0.6804126,-3.850777 z m -4.9489356,0.07488 c 1.002745,1.567059 2.045432,2.346116 2.292197,3.148871 0.331712,1.078312 -1.201586,1.753197 -1.776926,0.727406 -0.426566,-0.760826 -0.583477,-2.727834 -0.515271,-3.876277 z m 5.3451576,5.752126 c -0.607611,1.758539 -1.4385676,2.76001 -1.4905296,3.598297 -0.06963,1.125988 1.5790786,1.422852 1.8979326,0.290838 0.236484,-0.839653 -0.0719,-2.788771 -0.407403,-3.889135 z m -4.7365536,1.436082 c 1.39583,1.229943 2.612852,1.69142 3.071348,2.395066 0.616089,0.945099 -0.671779,2.016485 -1.507612,1.189007 -0.619724,-0.613792 -1.312747,-2.461315 -1.563736,-3.584073 z"
   id="path3140"
   style="fill:#ffcf00;fill-rule:evenodd" /><path
   d="m 25.454777,32.873595 c -0.683028,0.223866 -1.338691,0.689924 -1.452285,1.129455 -0.158263,0.606895 -0.153572,1.382954 -0.725801,1.737654 -0.378401,0.316649 -0.517187,0.505974 -0.54241,0.651469 -0.907794,0.485597 -1.731193,1.16058 -2.485229,1.887033 0.0716,-0.360354 0.05868,-0.775221 -0.02463,-1.166419 -0.0297,-0.294191 0.447701,-1.286227 0.891829,-2.049333 0.542254,-0.931682 0.936279,-1.181143 1.958041,-1.517703 0.867072,-0.285617 1.446725,-0.321308 2.380488,-0.672156 z m 6.311479,-2.453888 0.726423,2.317587 -0.196252,1.904148 c 1.592159,-0.757267 2.68437,-2.055266 3.090789,-3.895146 -0.934322,-0.116297 -1.817764,-0.46991 -2.154199,-1.370592 -0.262539,0.634882 -0.815664,0.922612 -1.466761,1.044003 z m 0.390018,5.581548 -0.383619,3.722004 0.672436,-0.120273 1.831183,0.115863 -0.411979,3.679139 -1.081588,0.3816 -0.446085,1.262525 0.201407,2.327372 -5.416265,1.660495 -6.345027,-1.658383 0.641405,-2.325321 2.063808,-0.423876 0.997192,-1.181049 0.225512,-2.292333 2.700957,-0.522064 0.647462,-3.950965 c -1.473345,0.02547 -2.918673,-0.0012 -4.343126,0.515385 l -0.02898,0.01072 c 0.17224,0.843309 0.01755,1.788441 -0.603913,2.0557 L 22.612239,37.94765 c 0.134841,-0.10061 0.259183,-0.253965 0.334385,-0.420365 -1.283431,0.663458 -2.36154,1.713674 -3.435145,2.655513 -1.173066,1.029155 -2.467773,1.655618 -4.080743,2.31271 l -4.35e-4,0 -4.66e-4,1.86e-4 -0.08132,-0.202899 9.3e-5,-3.1e-5 -6.2e-5,-1.55e-4 c 1.498382,-0.610467 2.562233,-1.529941 3.60459,-2.668777 0.194108,-0.212062 0.393248,-0.426795 0.597669,-0.640876 l -0.389583,-1.098052 c 0.293041,-0.218647 0.536259,-0.685699 0.334106,-0.996819 -0.123255,-0.424341 -0.561699,-0.463635 0.330347,-1.210124 0.572229,-0.3547 0.567539,-1.130759 0.725801,-1.737654 0.114464,-0.442917 0.779414,-0.912858 1.468096,-1.134673 0.566172,-0.233806 0.867227,-0.377314 1.120478,-0.599937 0.470313,-0.36436 0.536725,-0.830853 0.484105,-1.333472 -0.08266,-0.788981 -0.05265,-1.557773 0.425864,-2.257419 -2.929172,0.06722 -6.914181,0.702473 -9.005293,0.30879 1.61238,-2.040946 6.635304,-0.863034 9.520647,-0.729094 0.402349,-0.204855 0.94013,-0.324942 1.594333,-0.36495 l 0.171215,-0.472147 0.492616,-0.53222 0.629105,0.359856 0.482831,-0.769599 -0.320562,-0.463604 -1.162102,0.841632 c -0.368957,0.393373 -0.612641,0.294191 -1.227829,0.227935 -0.458199,-0.194823 -1.129735,-0.264744 -1.864202,-0.1851 -0.408096,0.04479 -0.497928,0.09229 -0.637273,-0.04706 -0.518336,-0.552847 1.001634,-1.432841 1.372362,-1.592283 1.179216,-0.507247 1.515031,-0.850547 2.053091,-1.807234 l 0.392752,-0.698311 c -0.761709,-0.05815 -1.422777,0.01662 -2.172029,0.119559 -1.154647,0.149844 -1.27697,0.517932 -1.807358,0.59301 -0.412507,0.0584 -0.782335,0.03612 -1.111564,-0.08204 l -3.600489,0.826008 c -0.610373,0.160343 -1.559481,0.05625 -2.103723,-0.417073 0.616369,-0.131828 0.983245,-0.345661 1.366274,-0.669609 l 4.339212,-0.534613 c 1.118366,-0.539489 2.216199,-0.482459 3.371592,-0.743009 0.730242,-0.10788 1.713239,-0.236726 2.405896,-0.481963 0.455901,-0.161399 0.894003,-0.444811 1.327073,-0.664111 -0.03973,-0.68542 -0.278628,-2.120093 -0.128753,-2.656227 0.06237,-0.223183 0.152019,-0.452049 0.245641,-0.53862 -0.05979,-0.290059 -0.368337,-0.295806 -0.581983,-0.272168 -0.363925,0.04026 -0.414308,0.454286 -0.983121,0.448943 0.37545,-0.376599 0.29239,-1.05503 0.964732,-1.10445 0.391447,-0.02876 0.769692,0.280834 0.828959,0.799357 0.40617,0.01892 1.086744,0.07775 1.406096,0.733162 0.149285,0.293632 0.169196,0.393156 0.184137,0.950537 0.01988,0.587232 0.110426,0.689334 -0.03389,0.953114 l -0.396075,0.227718 0.06032,0.520666 0.937055,0.454099 c 1.935738,-2.691608 3.565886,-0.424808 2.850118,2.230084 2.562482,-1.62962 5.37545,-1.054253 6.739829,0.628856 0.272385,0.336031 0.7217,0.533805 0.874496,0.926898 0.148198,0.381165 0.219299,0.890151 0.19066,1.324402 l -0.625718,0.03675 c -0.225761,0.610187 -0.360758,1.093703 -0.807775,1.491113 -0.178018,0.158263 -0.435741,0.211721 -0.589406,0.319817 -0.583474,0.410457 -0.798207,1.14129 -1.374537,1.33195 0.237565,0.06703 0.483733,0.112508 0.700206,0.234489 0.208552,0.117509 0.508614,0.328888 0.536601,0.517808 0.140339,0.61758 -0.314816,0.805227 -0.325999,1.902533 0.03979,0.447887 -0.549336,0.754627 -0.9027,0.903943 -0.288631,0.124404 -0.418036,0.308542 -0.447887,0.622084 -0.547535,0.425802 -1.006045,0.76233 -1.861251,0.753695 l 0.477241,-1.284922 c 0.268657,0.04504 0.469475,-0.0016 0.622084,-0.09834 l 0.51759,-0.937335 c 0.122945,-0.413656 0.209515,-1.063945 0.123473,-1.180987 -0.132108,-0.264278 -0.741643,-0.114247 -1.495555,-0.08933 -0.491778,2.33992 -1.989228,4.288611 -4.10491,5.21405 z m -3.904558,-0.537222 0.303976,-1.854977 1.979536,-3.111321 c -1.024465,-0.01879 -2.013177,-0.162735 -2.362814,0.135494 -0.144097,0.809793 0.05163,2.413973 -1.736536,3.055999 -0.802245,0.141426 -1.473376,0.757857 -1.868612,1.436971 -0.126579,0.217467 -0.255705,0.453416 -0.37517,0.686632 1.333596,-0.357837 2.665546,-0.300776 4.05962,-0.348798 z m 8.951711,-6.309057 c -0.36784,-9.32e-4 -0.735741,-0.0675 -1.103487,-0.27866 -0.224767,-1.563892 0.254027,-2.285872 1.714481,-2.547292 0.116173,0.769164 0.323638,1.067268 -0.129529,1.718551 -0.278753,0.400579 -0.609722,0.819951 -0.481465,1.107401 z"
   id="path3054"
   style="fill:#925642;fill-opacity:1;fill-rule:evenodd" /><path
   d="m 25.454777,32.873595 0.326868,-5.010312 c -0.485659,0.05777 -0.894314,0.167301 -1.216274,0.331216 l -0.515354,0.420304 c -0.478514,0.699646 -0.508521,1.468438 -0.425864,2.257419 0.05262,0.502619 -0.01379,0.969112 -0.484105,1.333472 -0.253251,0.222623 -0.554306,0.366131 -1.120478,0.599937 -0.688682,0.221815 -1.353632,0.691756 -1.468096,1.134673 -0.158262,0.606895 -0.153572,1.382954 -0.725801,1.737654 -0.892046,0.746489 -0.453602,0.785783 -0.330347,1.210124 0.202153,0.31112 -0.04107,0.778172 -0.334106,0.996819 l 0.464816,1.310145 c 0.627986,-0.270056 0.779352,-1.232334 0.598383,-2.082259 -0.0297,-0.294191 0.447701,-1.286227 0.891829,-2.049333 0.542254,-0.931682 0.936279,-1.181143 1.958041,-1.517703 0.867072,-0.285617 1.446725,-0.321308 2.380488,-0.672156 z"
   id="path3056"
   style="fill:none" /><path
   d="m 38.468513,44.511011 c -2.967206,1.870787 -6.480246,2.95441 -10.246387,2.95441 -3.766141,0 -7.279182,-1.083623 -10.246388,-2.95441 l -3.241489,5.152933 c 3.905907,2.462619 8.530306,3.889011 13.487877,3.889011 4.957571,0 9.58197,-1.426392 13.487877,-3.889011 l -3.24149,-5.152933 z"
   id="path3132"
   style="fill:#bb0000;fill-rule:evenodd" /><path
   d="m 20.665431,50.725329 1.044799,-2.585893 c 0.04814,-0.119205 0.0055,-0.206605 -0.130107,-0.261394 L 21.320127,47.773 l 0.08187,-0.202661 1.62632,0.657088 -0.08187,0.202661 -0.298727,-0.120696 c -0.122187,-0.04938 -0.204494,-0.0237 -0.245119,0.07684 l -1.009547,2.498741 c -0.04637,0.114733 0.0024,0.20204 0.146941,0.260431 l 0.26599,0.107465 -0.08187,0.202661 -5.229928,-2.113048 0.08187,-0.20263 0.253287,0.10234 c 0.158682,0.06411 0.261891,0.0382 0.308232,-0.07653 l 0.998117,-2.470446 c 0.04814,-0.119174 0.0048,-0.206885 -0.130852,-0.261673 l -0.288292,-0.116503 0.08187,-0.20263 1.641974,0.663392 -0.08187,0.202661 -0.286086,-0.115602 c -0.122186,-0.04935 -0.203717,-0.02339 -0.244373,0.07718 l -1.056198,2.614219 1.104091,0.446072 1.044768,-2.585893 c 0.04817,-0.119205 0.0048,-0.206916 -0.130107,-0.261394 l -0.192225,-0.07768 0.08187,-0.20263 1.472888,0.595063 -0.08187,0.202661 -0.213811,-0.08641 c -0.120696,-0.04876 -0.201512,-0.02246 -0.242138,0.07808 l -1.056198,2.614219 1.106297,0.446972 z m 4.453543,-2.338413 0.686998,3.312801 c 0.02022,0.09399 0.04907,0.160172 0.0865,0.199369 0.03659,0.03904 0.0911,0.06597 0.162097,0.07979 l 0.12461,0.02423 -0.04171,0.214526 -1.603491,-0.311679 0.04168,-0.214557 0.149861,0.02913 c 0.118335,0.02301 0.20294,0.02553 0.252977,0.0083 0.04923,-0.01745 0.07805,-0.04786 0.0865,-0.09125 0.0066,-0.03392 0.0056,-0.07504 -0.0046,-0.123678 L 24.917523,50.829665 23.64214,50.58175 23.461376,50.846219 c -0.07377,0.110074 -0.11728,0.194896 -0.128616,0.253288 -0.01947,0.100165 0.0018,0.188622 0.06383,0.265338 0.06206,0.07672 0.156849,0.127902 0.284626,0.152718 l 0.108055,0.02103 -0.04168,0.214526 -1.295913,-0.25189 0.04168,-0.214557 0.07417,0.01441 c 0.0828,0.01612 0.161352,0.0036 0.23459,-0.03625 0.10352,-0.05681 0.191355,-0.137965 0.263444,-0.243473 l 1.794661,-2.684692 0.258754,0.05028 z m -0.539404,0.79148 -0.798812,1.195343 1.08614,0.21114 -0.287328,-1.406483 z m 3.88401,-0.525987 1.414621,3.073367 c 0.04081,0.08703 0.08383,0.144984 0.129113,0.17477 0.04445,0.02982 0.103613,0.04379 0.175919,0.04128 l 0.126846,-0.0044 0.0076,0.218408 -1.632532,0.05702 -0.0076,-0.218439 0.152562,-0.0053 c 0.120479,-0.0042 0.2035,-0.02081 0.24835,-0.04886 0.04404,-0.02811 0.06529,-0.0642 0.06376,-0.108365 -0.0012,-0.03457 -0.01146,-0.07439 -0.0323,-0.119485 l -0.293136,-0.63457 -1.29849,0.04535 -0.116628,0.298323 c -0.04708,0.123864 -0.07041,0.216327 -0.06833,0.275774 0.0035,0.101968 0.0442,0.183374 0.121908,0.244156 0.07768,0.06078 0.181571,0.08933 0.311678,0.08479 l 0.110012,-0.0039 0.0076,0.218439 -1.319362,0.04606 -0.0076,-0.218408 0.07547,-0.0025 c 0.08433,-0.0031 0.158029,-0.03283 0.220458,-0.08812 0.08808,-0.07864 0.155389,-0.177472 0.201885,-0.29646 l 1.144778,-3.019634 0.263413,-0.0092 z m -0.347521,0.892516 -0.509463,1.344427 1.105799,-0.03864 -0.596336,-1.30579 z m 2.304528,-0.879564 2.001049,-0.388954 c 0.339166,-0.06594 0.629693,-0.02826 0.870961,0.113925 0.24192,0.141226 0.388488,0.343577 0.439705,0.606989 0.03892,0.200363 0.01304,0.387122 -0.07678,0.560929 -0.09075,0.173155 -0.229713,0.313107 -0.417652,0.420044 -0.187163,0.106781 -0.380133,0.179491 -0.577328,0.217818 l -0.633358,0.123118 0.216482,1.113689 c 0.01211,0.06234 0.03945,0.106129 0.08153,0.13315 0.04212,0.02702 0.09041,0.03563 0.146444,0.02472 l 0.392774,-0.07634 0.04171,0.214557 -1.821216,0.354012 -0.04171,-0.214557 0.305281,-0.05932 c 0.0678,-0.0132 0.115695,-0.0405 0.143804,-0.08116 0.02814,-0.04069 0.03628,-0.09138 0.02416,-0.153681 l -0.506109,-2.603659 c -0.01149,-0.05917 -0.03851,-0.101377 -0.0806,-0.128398 -0.04212,-0.02699 -0.08808,-0.03606 -0.139331,-0.02612 l -0.328109,0.0638 -0.04171,-0.214557 z m 1.565817,1.444065 0.423585,-0.08234 c 0.147469,-0.02867 0.273072,-0.08582 0.375163,-0.171167 0.102899,-0.08548 0.169117,-0.178559 0.200549,-0.27798 0.03063,-0.09927 0.02671,-0.249933 -0.01255,-0.451879 -0.05395,-0.277607 -0.166911,-0.458682 -0.338079,-0.543256 -0.125572,-0.06075 -0.319536,-0.06476 -0.58298,-0.01357 -0.152997,0.02975 -0.246796,0.06109 -0.282887,0.09429 -0.03612,0.0332 -0.0482,0.08057 -0.03625,0.142096 l 0.253443,1.303802 z m 3.62653,-1.119652 0.525956,-0.212507 c 0.429113,-0.173372 0.812818,-0.238255 1.149282,-0.194803 0.336495,0.04342 0.568662,0.223471 0.696005,0.538597 0.117683,0.291273 0.103365,0.551859 -0.04162,0.782908 -0.14601,0.230584 -0.436568,0.433773 -0.873136,0.610158 l -1.879638,0.759427 -0.08187,-0.202661 0.297236,-0.120106 c 0.05516,-0.02227 0.08902,-0.05848 0.101719,-0.108676 0.01264,-0.05016 0.0081,-0.102091 -0.01354,-0.155699 L 34.48347,48.186926 c -0.03401,-0.0842 -0.121969,-0.09805 -0.264996,-0.04025 l -0.251052,0.101439 -0.08187,-0.202661 1.598026,-0.645658 0.08187,0.202661 -0.270432,0.109266 c -0.03948,0.01593 -0.0724,0.04395 -0.09998,0.08284 -0.02764,0.03889 -0.03149,0.08293 -0.01134,0.13284 l 0.429238,1.062379 z m 0.08128,0.201139 0.494834,1.224787 c 0.02677,0.06628 0.0605,0.109018 0.100539,0.126628 0.04007,0.01764 0.09746,0.01174 0.171974,-0.01836 l 0.397092,-0.16042 c 0.181789,-0.07345 0.317642,-0.185517 0.407527,-0.336247 0.08988,-0.150699 0.08336,-0.353453 -0.01957,-0.608262 -0.09815,-0.242883 -0.227291,-0.403863 -0.386034,-0.483592 -0.158744,-0.07973 -0.37445,-0.06451 -0.647118,0.04569 l -0.519247,0.209774 z m 1.345669,-2.419913 1.654646,-0.668517 0.08187,0.202661 -0.299504,0.121007 c -0.06407,0.02587 -0.104855,0.05792 -0.123646,0.09501 -0.01885,0.03705 -0.01867,0.08035 0.0016,0.130231 l 1.009547,2.49874 c 0.02348,0.05811 0.05597,0.09352 0.09647,0.105788 0.05168,0.01637 0.114919,0.0099 0.189398,-0.02022 l 0.266737,-0.107775 0.08187,0.202661 -1.654646,0.668518 -0.08187,-0.202661 0.253287,-0.10234 c 0.08718,-0.03522 0.142251,-0.07476 0.16626,-0.118274 0.02404,-0.04351 0.02444,-0.09395 0.0016,-0.150575 l -0.998117,-2.470445 c -0.02469,-0.06106 -0.05945,-0.09989 -0.103955,-0.115696 -0.04454,-0.01581 -0.101937,-0.0099 -0.17123,0.01805 l -0.288322,0.116502 -0.08187,-0.202661 z"
   id="path3134"
   style="fill:#ffffff;fill-rule:nonzero" /><g
   transform="matrix(-1,0,0,1,56.444444,0)"
   id="g3155"><path
     d="m 9.1727957,42.156199 0.2398245,-3e-4 0.7744368,-1.065923 c 1.655414,-2.278504 -3.4446828,-2.278805 -1.7888785,1.06e-4 z M 7.6510588,42.93226 8.904572,42.52498 8.978623,42.296907 8.2041858,41.230925 C 6.550245,38.954524 4.9725784,43.802538 7.6510588,42.93226 z m 1.5217369,1.27933 0,-1.317797 -0.1940827,-0.14077 -1.2535732,0.40728 c -2.6843711,0.87223 1.4476559,3.866719 1.4476559,1.051287 z m 1.6871503,-1.051287 -1.2535441,-0.40728 -0.1937817,0.14122 0,1.317557 c 0,2.814892 4.1316058,-0.179267 1.4473258,-1.051497 z m -0.479016,-1.929348 -0.7744381,1.065983 0.07408,0.228042 1.2534841,0.40725 c 2.678481,0.870308 1.100814,-3.977615 -0.553126,-1.701275 z"
     id="path3157"
     style="fill:#ffffff;fill-rule:evenodd" /><path
     d="m 9.2925275,41.599737 c -0.5110825,0 -0.9255446,0.414462 -0.9255446,0.925544 0,0.511083 0.4144621,0.925545 0.9255446,0.925545 0.5110825,0 0.9255445,-0.414462 0.9255445,-0.925545 0,-0.511082 -0.414462,-0.925544 -0.9255445,-0.925544 z"
     id="path3159"
     style="fill:#ffcf00;fill-rule:evenodd" /></g><path
   d="m 29.942015,18.388543 c -0.176194,0.01603 -0.462938,0.189546 -0.299861,0.352778 0.03088,0.036 0.06174,0.29035 0.06174,0.449792 3e-6,0.2867 0.300637,0.61599 0.661458,0.388055 0.05578,-0.07713 5.65e-4,-0.910619 -0.09701,-1.11125 -0.128615,-0.124761 -0.165869,-0.0885 -0.326327,-0.07938 z m 2.866319,1.72861 c -0.47851,-0.01548 -1.066433,0.355386 -1.702153,1.217084 L 30.02139,20.822709 c 0.205539,0.623512 0.6608,1.022899 1.296458,1.27 0.02489,0.14913 -0.461797,0.388825 -0.511528,0.537986 -0.07458,0.198861 -0.0784,0.260207 -0.0088,0.493889 0.09446,0.308231 0.194203,0.577075 0.114653,0.855486 -0.03976,0.149161 -0.263601,0.32051 -0.467431,0.449792 -0.02379,0.01558 -0.06846,0.02792 -0.105833,0.0441 -0.439756,0.09095 -0.816472,0.260475 -1.225903,0.185208 0.156741,0.332304 0.522523,0.605442 1.490486,0.705556 0.610249,0.06309 1.100864,-0.09389 1.516945,0.458611 0.304255,0.403965 0.583155,1.073174 0.396875,1.578681 -0.191624,0.520167 -0.542748,0.545171 -0.996598,0.617361 0.308481,0.860301 0.07018,1.67739 -0.546805,2.460625 1.178439,-0.06753 1.598162,-0.889869 1.693333,-2.337153 0.426983,-0.138631 0.963005,-0.453955 1.040695,-0.811389 -0.347698,-1.312744 -0.962869,-2.08894 -1.631598,-2.584097 0.02088,-0.125896 0.04228,-0.28118 0.05292,-0.47625 0.243465,-0.545174 0.902967,-0.577012 1.640417,-0.855486 0.204233,-0.805009 0.229311,-1.619309 0.07055,-2.196042 -0.188067,-0.683059 -0.553364,-1.086954 -1.031875,-1.102431 z m -3.757083,0.432153 c -1.817903,1.58086 -4.253574,1.611067 -5.87375,1.91382 0.861401,0.125044 2.302008,-0.03987 3.65125,-0.15875 l 0.03528,-0.01764 c 0.08951,0.862442 0.09389,1.405718 0.03528,2.187222 -0.09445,0.427528 -0.461096,0.870092 -0.758472,0.926042 -0.368114,0.06926 -1.163047,0.799252 -0.361597,0.749652 0.631339,-0.03976 1.169941,-0.294217 1.5875,-0.617361 0.442408,-0.342984 0.577083,-0.494681 0.582083,-1.190625 l -0.07938,-2.54 0.396875,-0.185208 0.864306,-0.732014 0.767291,-0.105833 z m 0.352778,1.931459 c -0.05703,0.0056 -0.107835,0.0222 -0.141112,0.05292 -0.119295,0.109371 -0.206871,0.27354 -0.132291,0.467431 0.03976,0.1044 0.232348,0.238125 0.361597,0.238125 0.188922,0 0.359989,-0.291637 0.335139,-0.520347 -0.02055,-0.164449 -0.252259,-0.254835 -0.423333,-0.238125 z m 8.581319,0.361597 c -0.106618,-0.0023 -0.217988,0.0031 -0.326319,0.0088 -0.637334,0.279063 -1.260478,0.506319 -1.825625,0.352778 -0.556884,-0.342057 -1.161678,-0.09659 -1.790348,0.423333 l -0.511527,1.093611 c 1.031889,-0.679674 2.384792,-0.945799 4.206875,-0.546805 -0.01298,-0.207744 -0.0223,-0.418436 -0.03528,-0.626181 0.376535,-0.115427 0.752351,0.09527 1.128889,0.626181 0.377345,0.05417 0.606656,0.292303 0.696736,0.705555 0.41549,0.05672 0.836871,0.06607 1.252361,0.855487 l -0.46743,0.696736 c -0.438506,0.0994 -1.376861,0.584885 -1.12007,1.172986 -0.126548,0.356813 -0.386879,1.057851 -0.740833,1.375833 0.452422,0.162735 0.809066,-1.008865 1.393472,-1.128889 0.217715,-0.06803 0.450638,-0.270114 0.537986,-0.379236 0.312175,-0.389955 0.418496,-0.91559 0.511528,-1.349375 0.220729,-0.01298 0.44073,-0.03112 0.661458,-0.0441 -0.08319,-0.750837 -0.376684,-1.319215 -0.890764,-1.710972 -0.220728,-0.07101 -0.449549,-0.208694 -0.670277,-0.423334 -0.569629,-0.841096 -1.2645,-1.086235 -2.010834,-1.10243 z m -9.410347,2.663472 0.141111,1.42875 -1.11125,1.243542 0.0088,0.749653 1.710973,-0.176389 1.11125,-0.758473 c 0.523587,-1.532364 -0.165411,-1.598356 -1.084792,-1.649236 l -0.776111,-0.837847 z m 8.087431,0.141111 c -0.87047,0.0093 -1.655793,0.171382 -2.416528,0.890764 l 0.714375,0.07937 c 0.01843,0.514919 -0.320656,1.750069 0.123472,2.116667 0.515945,0.42602 2.092384,0.573317 3.183819,0.855486 0.529675,0.136954 0.977192,0.407636 1.084792,0.590903 0.06706,0.114184 -0.215953,0.935295 -0.211666,1.172986 0.01329,0.734746 -0.175958,1.057379 -0.776112,1.631597 0.355911,-0.154751 0.902699,-0.458749 0.864306,-0.890764 0.01118,-1.097305 0.466657,-1.278599 0.326319,-1.89618 -0.028,-0.188923 -0.333312,-0.458341 -0.555625,-0.546806 -0.496375,-0.197618 -1.851812,-0.481274 -2.910416,-0.758472 -0.267445,-1.600763 0.351869,-2.388162 1.728611,-2.566459 0.116112,0.768792 0.319975,1.069161 -0.132292,1.719792 1.187636,-0.183765 0.885856,-1.647664 0.652639,-2.337153 -0.602965,-0.01347 -1.153411,-0.06729 -1.675694,-0.06174 z m -10.451042,2.38125 c -1.854946,-0.03174 -2.47937,1.11508 -2.407709,2.910417 0.369265,-1.416979 1.064897,-2.533464 2.407709,-2.910417 z m -7.796389,0.0441 c -1.154569,0.01695 -1.947393,0.171064 -2.178403,0.537987 2.071729,-0.123317 4.437021,-0.141267 6.50875,-0.264584 -1.661863,-0.175765 -3.175779,-0.290355 -4.330347,-0.273403 z m 14.807847,1.287639 c 0.107476,0.311585 0.281486,0.570933 0.617361,0.829028 0.463138,0.355913 1.084165,0.513653 1.719792,0.573264 -0.214173,1.232583 -0.701737,2.562457 -2.037292,3.518959 -1.999445,1.432001 -4.079917,1.509973 -7.408333,1.693333 -3.555915,0.19591 -5.243289,2.189446 -5.715,3.095625 4.03912,-3.712749 6.490915,-1.804885 10.442222,-2.645833 2.766994,-0.588942 4.805167,-2.885124 5.423959,-5.635626 0.752421,-0.02523 1.358564,-0.175711 1.490486,0.08819 0.07281,0.09906 0.02128,0.626796 -0.07056,1.023055 0.496344,0.143042 0.526441,-0.267193 0.617361,-0.749652 0.06815,-0.361536 -0.0352,-0.72355 -0.449791,-0.79375 -1.64627,-0.278847 -3.069393,0.322989 -4.630209,-0.996598 z m -3.369028,0.05292 -2.293055,0.273403 c -0.192368,0.800506 -0.740767,2.5513 -2.107848,3.183819 -0.683028,0.223867 -1.332795,0.689356 -1.446389,1.128889 -0.158262,0.606894 -0.159784,1.382731 -0.732013,1.737431 -0.344419,0.288228 -0.486705,0.477116 -0.529167,0.617361 0.44186,-0.234459 0.923205,-0.421372 1.455208,-0.555625 0.116887,-0.227344 0.247099,-0.458402 0.370417,-0.670278 0.395236,-0.679114 1.058658,-1.296142 1.860903,-1.437569 1.788162,-0.642028 1.593333,-2.250553 1.73743,-3.060348 0.325315,-0.277449 1.206162,-0.172268 2.151945,-0.141111 L 29.85382,29.412848 z m -2.645833,0.617361 c -1.250505,3.288126 -4.27207,1.99751 -5.450417,3.836459 1.166357,-0.876329 2.667903,-0.714059 3.81,-1.349375 0.797555,-0.443724 1.383843,-1.367443 1.640417,-2.487084 z m 4.462639,0.405695 c -0.311243,0.04955 -0.64855,0.06334 -0.978958,0.06174 l -1.91382,3.104444 -0.194028,1.252361 0.299861,-0.03528 0.141111,-1.181806 0.396875,-0.511528 0.335139,0.396875 0.714375,-1.137708 0.758473,-0.202847 -0.652639,1.10243 -0.176389,1.569861 c 0.641872,-0.03442 1.245751,-0.255191 1.834444,-0.555625 l 0.176389,-1.534583 z m 5.476875,2.54 c -0.156027,0.110207 -0.366339,0.162675 -0.652639,0.114652 l -0.47625,1.287639 c 0.855207,0.0086 1.313369,-0.323852 1.860903,-0.749652 0.02985,-0.313544 0.16116,-0.501777 0.449792,-0.626181 l -1.296459,0.282222 z m -5.23875,3.430764 c -0.889748,0.362311 -1.88674,0.579377 -2.86632,0.47625 l -0.220486,2.187222 -0.758472,1.349375 3.527778,-0.652639 z m -8.219723,0.837847 c -0.276236,0.110177 -0.53662,0.232413 -0.776111,0.352778 -0.07579,0.138661 -0.18431,0.266547 -0.299861,0.352777 l 0.467431,1.305278 c 0.61056,-0.262568 0.766461,-1.179017 0.608541,-2.010833 z m 8.757709,2.354792 -0.0088,0.0088 0,4.233333 -6.596945,0.335139 4.982986,0.370417 0.908403,1.137708 0.132292,1.896181 0.670278,-0.211667 -0.194028,-2.328333 0.440972,-1.261181 1.084792,-0.379236 0.405694,-3.677708 -1.825625,-0.123472 z m -3.448403,6.058958 -7.346597,0.917222 2.875139,1.067153 5.247569,0.48507 0,-1.993195 z M 29.17462,17.591409 c -0.594558,0.100433 -0.65792,0.529177 -0.433134,1.238387 0.0857,-0.567898 0.01714,-0.796424 0.433134,-1.238387 z"
   id="path3062"
   style="fill:#651e16;fill-opacity:1;fill-rule:evenodd" /></svg>