<svg width="842" height="241" viewBox="0 0 842 241" fill="none" xmlns="http://www.w3.org/2000/svg">
<path d="M0 61.9893C0 60.9176 0.571665 59.9273 1.4997 59.3914L102.841 0.866429C103.769 0.330298 104.913 0.330302 105.841 0.866433L207.182 59.3914C208.11 59.9273 208.682 60.9176 208.682 61.9893V178.89C208.682 179.962 208.11 180.952 207.182 181.488L105.841 240.013C104.913 240.549 103.769 240.549 102.841 240.014L1.5004 181.525C0.571973 180.99 0 179.999 0 178.927V61.9893Z" fill="url(#paint0_linear)"/>
<path d="M156.7 83.2024H152.337V76.9209C152.353 76.3915 152.212 75.8692 151.93 75.4205C151.649 74.9718 151.241 74.6168 150.757 74.4007L149.29 73.6484C141.316 69.3605 133.342 65.1477 125.48 60.8597L113.105 54.2397C112.697 54.0346 112.246 53.9277 111.789 53.9277C111.332 53.9277 110.881 54.0346 110.473 54.2397L47.6197 90.6875C47.2178 90.9236 46.8826 91.2581 46.6457 91.6595C46.4088 92.0609 46.278 92.516 46.2656 92.982V171.031C46.2656 171.729 46.543 172.399 47.0368 172.893C47.5306 173.386 48.2003 173.664 48.8986 173.664C49.4189 173.683 49.932 173.538 50.3655 173.25L58.5278 168.511V177.651C58.5475 178.363 58.8466 179.038 59.3605 179.531C59.8744 180.023 60.5617 180.294 61.2736 180.284C61.7566 180.287 62.229 180.143 62.6277 179.87L70.9027 175.131V184.308C70.9027 185.007 71.1801 185.676 71.6739 186.17C72.1677 186.664 72.8374 186.941 73.5357 186.941C74.056 186.961 74.5691 186.816 75.0026 186.528L150.983 142.67C151.4 142.452 151.748 142.122 151.988 141.716C152.227 141.311 152.348 140.846 152.337 140.375V113.782L156.963 111.149C157.227 110.989 157.504 110.851 157.791 110.736C159.897 109.57 161.891 108.517 161.891 105.47V89.4087C161.891 85.0831 159.784 83.2024 156.7 83.2024ZM59.8066 97.3076C59.4047 97.5437 59.0696 97.8782 58.8327 98.2796C58.5958 98.681 58.4649 99.1361 58.4525 99.602V162.492L51.3811 166.479V94.5618L111.751 59.7313L118.56 63.3046L59.8066 97.3076ZM72.2192 103.928C71.8017 104.145 71.4535 104.476 71.2142 104.881C70.9748 105.287 70.8539 105.751 70.8651 106.222V169L63.8313 173.024V101.182L124.014 66.2385L130.822 69.9999L72.2192 103.928ZM146.996 138.758L76.1311 179.682V107.764L136.577 72.8209L146.958 78.5006V88.1674L124.089 101.558C121.042 103.251 119.462 104.191 119.462 107.125V122.998C119.393 124.138 119.654 125.274 120.215 126.27C120.697 127.134 121.432 127.83 122.321 128.264C123.064 128.645 123.894 128.827 124.728 128.79C125.836 128.798 126.926 128.512 127.888 127.963L146.996 116.942V138.758ZM157.415 105.319C157.415 106.072 156.775 106.373 155.007 107.426L152.374 108.893L147.861 111.526L125.706 124.126C125.434 124.327 125.104 124.433 124.766 124.427C124.578 124.427 124.465 124.427 124.352 124.427C124.239 124.427 124.126 124.427 124.126 124.201C123.964 123.875 123.887 123.513 123.901 123.148V107.501C123.901 106.636 124.841 106.222 126.308 105.395L146.996 93.3205L147.823 92.9068L152.337 90.2738L156.098 88.0546C157.377 87.3399 157.377 88.9197 157.415 89.4839V105.319Z" fill="white"/>
<path d="M136.878 113.033C136.42 113.314 135.909 113.499 135.377 113.577C134.844 113.655 134.302 113.624 133.782 113.487C133.262 113.35 132.775 113.109 132.35 112.779C131.926 112.449 131.572 112.036 131.311 111.566C130.801 110.644 130.668 109.56 130.942 108.543C131.216 107.525 131.874 106.653 132.778 106.112C133.233 105.82 133.743 105.623 134.276 105.532C134.809 105.441 135.354 105.458 135.881 105.583C136.407 105.707 136.902 105.937 137.338 106.257C137.773 106.578 138.14 106.983 138.415 107.448C138.691 107.913 138.87 108.429 138.942 108.965C139.014 109.501 138.977 110.046 138.833 110.567C138.69 111.088 138.443 111.575 138.107 111.999C137.771 112.423 137.353 112.774 136.878 113.033Z" fill="white"/>
<path d="M322.355 151.031L300.882 69.0332H271V182.338H293.899V151.696L291.856 104.426L314.469 182.338H330.099L352.713 104.426L350.622 151.696V182.338H373.568V69.0332H343.686L322.355 151.031Z" fill="#414144"/>
<path d="M422.693 96.5431C417.946 96.2758 413.202 97.1201 408.839 99.0088C404.476 100.897 400.615 103.778 397.561 107.422C391.272 116.445 388.209 127.324 388.867 138.302V144.953C388.142 155.467 391.552 165.848 398.369 173.885C401.819 177.367 405.973 180.07 410.553 181.816C415.133 183.561 420.033 184.307 424.925 184.004C430.684 184.055 436.392 182.923 441.695 180.679C446.319 178.709 450.348 175.564 453.382 171.557L444.831 158.303C442.431 160.761 439.553 162.704 436.375 164.011C433.198 165.318 429.786 165.962 426.351 165.904C424.26 166.07 422.158 165.774 420.196 165.035C418.233 164.295 416.458 163.132 414.996 161.628C412.235 157.554 410.808 152.724 410.911 147.804H454.855V136.877C454.855 123.622 452.005 113.646 446.636 106.852C443.753 103.353 440.076 100.593 435.912 98.8001C431.748 97.0072 427.216 96.2334 422.693 96.5431ZM433.097 132.269H410.958C410.932 127.658 412.024 123.11 414.141 119.014C415.071 117.716 416.29 116.653 417.702 115.909C419.114 115.166 420.681 114.761 422.277 114.729C423.873 114.697 425.454 115.037 426.895 115.723C428.336 116.41 429.598 117.422 430.579 118.682C432.362 122.312 433.227 126.325 433.097 130.368V132.269Z" fill="#414144"/>
<path d="M764.792 124.329C765.041 120.566 764.493 116.793 763.183 113.256C761.873 109.72 759.831 106.499 757.191 103.806C751.243 98.6967 743.547 96.0914 735.718 96.5374C727.653 96.2467 719.765 98.9547 713.58 104.139C710.756 106.486 708.496 109.439 706.967 112.777C705.437 116.116 704.677 119.755 704.743 123.427H727.072C727.072 117.108 729.78 113.925 735.29 113.925C736.36 113.854 737.431 114.031 738.42 114.443C739.409 114.855 740.289 115.491 740.991 116.3C742.489 118.713 743.156 121.549 742.892 124.377V131.028H736.241C727.475 130.547 718.813 133.115 711.727 138.296C708.855 140.841 706.604 144.009 705.147 147.559C703.689 151.108 703.064 154.944 703.318 158.772C703.174 162.11 703.715 165.443 704.908 168.564C706.1 171.685 707.92 174.529 710.254 176.92C712.527 179.239 715.262 181.055 718.282 182.25C721.302 183.445 724.539 183.992 727.784 183.856C730.908 183.953 734.007 183.265 736.796 181.854C739.585 180.443 741.975 178.354 743.747 175.78C744.131 177.999 744.769 180.167 745.647 182.241H767.928V181.053C765.589 175.682 764.501 169.851 764.745 163.998V124.329H764.792ZM742.654 162.05C741.709 163.516 740.399 164.711 738.854 165.518C736.948 166.506 734.823 166.996 732.678 166.943C727.927 166.943 725.266 163.95 725.266 157.442C725.103 153.963 726.295 150.557 728.592 147.94C729.716 146.736 731.089 145.789 732.614 145.166C734.14 144.542 735.782 144.257 737.428 144.33H742.654V162.05Z" fill="#414144"/>
<path d="M662.081 69.0411H623.362V182.346H646.308V142.535H661.653C666.611 142.866 671.585 142.196 676.278 140.563C680.971 138.931 685.288 136.37 688.97 133.034C692.374 129.573 695.02 125.442 696.737 120.902C698.455 116.362 699.207 111.514 698.946 106.667C699.178 101.709 698.424 96.7545 696.728 92.09C695.032 87.4256 692.427 83.1439 689.065 79.4928C685.55 75.9577 681.332 73.2005 676.683 71.4C672.035 69.5995 667.06 68.7959 662.081 69.0411ZM672.2 119.304C670.957 120.749 669.397 121.887 667.642 122.629C665.886 123.37 663.983 123.696 662.081 123.58H646.308V88.1866H662.271C664.192 88.1493 666.092 88.5899 667.8 89.4689C669.508 90.348 670.971 91.6378 672.057 93.2224C674.758 97.1688 676.093 101.891 675.858 106.667C676.157 111.178 674.862 115.65 672.2 119.304Z" fill="#414144"/>
<path d="M510.532 105.72C508.649 102.764 506.019 100.359 502.907 98.7485C499.794 97.1381 496.311 96.38 492.811 96.551C488.753 96.3763 484.717 97.2245 481.073 99.0176C477.428 100.811 474.293 103.491 471.956 106.813C466.92 113.606 464.354 123.868 464.354 137.787V143.963C463.892 154.35 466.539 164.639 471.956 173.513C474.259 176.882 477.382 179.61 481.031 181.438C484.679 183.267 488.734 184.136 492.811 183.965C496.01 184.016 499.174 183.296 502.035 181.866C504.897 180.435 507.371 178.336 509.249 175.746V183.014C509.462 187.067 508.289 191.072 505.923 194.369C504.473 195.662 502.769 196.638 500.921 197.235C499.072 197.832 497.119 198.037 495.187 197.837C488.704 197.591 482.528 195.009 477.799 190.568L470.53 205.723C473.685 208.979 477.581 211.423 481.885 212.849C486.546 214.553 491.459 215.468 496.422 215.557C505.837 216.19 515.127 213.122 522.313 207.006C525.453 203.752 527.878 199.877 529.432 195.631C530.986 191.385 531.636 186.861 531.34 182.349V98.3088H511.292L510.532 105.72ZM509.296 160.686C508.173 162.294 506.647 163.579 504.871 164.412C503.095 165.246 501.132 165.599 499.177 165.437C497.265 165.529 495.365 165.089 493.688 164.167C492.011 163.244 490.622 161.875 489.676 160.211C487.315 154.851 486.288 148.999 486.683 143.156V137.787C486.131 131.843 487.112 125.857 489.533 120.4C490.485 118.73 491.871 117.35 493.543 116.405C495.216 115.46 497.114 114.985 499.035 115.031C501.019 114.993 502.979 115.467 504.727 116.408C506.474 117.348 507.95 118.723 509.011 120.4V160.686H509.296Z" fill="#414144"/>
<path d="M817.334 98.3066L806.123 145.814L796.004 98.3066H772.25L796.574 183.155L794.816 188.856C794.237 191.514 792.861 193.934 790.873 195.792C788.556 197.226 785.846 197.891 783.129 197.692H780.611V214.937C783.54 215.825 786.578 216.305 789.638 216.362C801.182 216.362 808.926 209.236 813.011 195.032L841.088 98.3066H817.334Z" fill="#414144"/>
<path d="M606.449 124.329C606.692 120.563 606.136 116.787 604.818 113.25C603.499 109.714 601.449 106.495 598.8 103.806C592.852 98.6967 585.156 96.0914 577.327 96.5374C569.262 96.2467 561.375 98.9547 555.189 104.139C552.4 106.505 550.176 109.465 548.68 112.803C547.184 116.14 546.453 119.77 546.542 123.427H568.681C568.681 117.108 571.389 113.925 576.9 113.925C577.969 113.854 579.04 114.031 580.029 114.443C581.018 114.855 581.898 115.491 582.6 116.3C584.045 118.614 584.726 121.323 584.548 124.044V130.695H577.897C569.092 130.31 560.426 132.997 553.383 138.296C550.531 140.864 548.296 144.044 546.848 147.599C545.4 151.153 544.776 154.989 545.022 158.819C544.878 162.158 545.419 165.49 546.612 168.611C547.805 171.733 549.624 174.576 551.958 176.967C554.231 179.287 556.967 181.103 559.986 182.298C563.006 183.493 566.244 184.04 569.488 183.903C572.608 183.971 575.696 183.27 578.479 181.861C581.263 180.453 583.658 178.38 585.451 175.827C585.836 178.046 586.473 180.214 587.351 182.288H609.49V181.053C607.293 175.645 606.273 169.831 606.497 163.998V124.329H606.449ZM584.548 162.05C583.603 163.516 582.293 164.711 580.748 165.518C578.842 166.506 576.718 166.996 574.572 166.943C569.821 166.943 567.161 163.95 567.161 157.442C566.997 153.963 568.189 150.557 570.486 147.94C571.611 146.736 572.983 145.789 574.508 145.166C576.034 144.543 577.676 144.257 579.322 144.33H584.548V162.05Z" fill="#414144"/>
<defs>
<linearGradient id="paint0_linear" x1="-23.5199" y1="-1.52679" x2="185.81" y2="255.229" gradientUnits="userSpaceOnUse">
<stop stop-color="#4BCF80"/>
<stop offset="1" stop-color="#3FBA71"/>
</linearGradient>
</defs>
</svg>
